<?xml version="1.0" standalone="no"?><svg xmlns:xlink="http://www.w3.org/1999/xlink" xmlns="http://www.w3.org/2000/svg" viewBox="0 0 1000 1000" preserveAspectRatio="xMaxYMax slice"><g transform="scale(1.364256480218281)"><rect x="0" y="0" width="733" height="733" fill="#002085"/><rect x="11.728000000000002" y="11.728000000000002" width="5.863999999999997" height="5.863999999999997" fill="#002085"/><polygon points="11.73,11.73 14.66,11.73 11.73,14.66" fill="#412a67"/><polygon points="14.66,11.73 17.59,11.73 14.66,14.66" fill="#002c8f"/><polygon points="11.73,14.66 14.66,14.66 11.73,17.59" fill="#006cc2"/><polygon points="14.66,14.66 17.59,14.66 17.59,17.59" fill="#929fcb"/><rect x="99.68800000000002" y="11.728000000000002" width="5.863999999999997" height="5.863999999999997" fill="#002085"/><polygon points="102.62,11.73 102.62,14.66 99.69,14.66" fill="#4960a8"/><polygon points="102.62,11.73 105.55000000000001,14.66 102.62,14.66" fill="#032387"/><polygon points="102.62,14.66 102.62,17.59 99.69,17.59" fill="#072182"/><polygon points="102.62,14.66 105.55000000000001,14.66 102.62,17.59" fill="#472b64"/><rect x="129.008" y="11.728000000000002" width="5.863999999999997" height="5.863999999999997" fill="#002085"/><polygon points="129.01,11.73 131.94,11.73 129.01,14.66" fill="#aa3b36"/><polygon points="131.94,11.73 134.87,14.66 131.94,14.66" fill="#af3c34"/><polygon points="129.01,14.66 131.94,14.66 131.94,17.59" fill="#0096e4"/><polygon points="131.94,14.66 134.87,14.66 134.87,17.59" fill="#586daf"/><rect x="246.288" y="11.728000000000002" width="5.863999999999997" height="5.863999999999997" fill="#002085"/><polygon points="249.22,11.73 249.22,14.66 246.29,14.66" fill="#0063bb"/><polygon points="249.22,11.73 252.15,11.73 252.15,14.66" fill="#6f81ba"/><polygon points="249.22,14.66 249.22,17.59 246.29,17.59" fill="#6276b4"/><polygon points="249.22,14.66 252.15,14.66 252.15,17.59" fill="#e3e7f2"/><rect x="363.56800000000004" y="11.728000000000002" width="5.863999999999997" height="5.863999999999997" fill="#002085"/><polygon points="363.57,11.73 366.5,14.66 363.57,14.66" fill="#12308e"/><polygon points="369.43,11.73 369.43,14.66 366.5,14.66" fill="#37509f"/><polygon points="363.57,14.66 366.5,17.59 363.57,17.59" fill="#99383e"/><polygon points="369.43,14.66 369.43,17.59 366.5,17.59" fill="#eceff6"/><rect x="422.208" y="11.728000000000002" width="5.863999999999997" height="5.863999999999997" fill="#002085"/><polygon points="422.21,11.73 425.14,11.73 425.14,14.66" fill="#7d8dc1"/><polygon points="425.14,11.73 428.07,14.66 425.14,14.66" fill="#4c63aa"/><polygon points="422.21,14.66 425.14,17.59 422.21,17.59" fill="#c33f2b"/><polygon points="428.07,14.66 428.07,17.59 425.14,17.59" fill="#435ba5"/><rect x="510.168" y="11.728000000000002" width="5.863999999999997" height="5.863999999999997" fill="#002085"/><polygon points="510.17,11.73 513.1,11.73 513.1,14.66" fill="#0082d4"/><polygon points="513.1,11.73 516.03,11.73 513.1,14.66" fill="#00278b"/><polygon points="510.17,14.66 513.1,14.66 510.17,17.59" fill="#007ace"/><polygon points="513.1,14.66 516.03,14.66 513.1,17.59" fill="#ccd3e7"/><rect x="539.4879999999999" y="11.728000000000002" width="5.863999999999997" height="5.863999999999997" fill="#002085"/><polygon points="539.49,11.73 542.42,14.66 539.49,14.66" fill="#7687bd"/><polygon points="545.3499999999999,11.73 545.3499999999999,14.66 542.42,14.66" fill="#98a5ce"/><polygon points="539.49,14.66 542.42,14.66 539.49,17.59" fill="#0070c5"/><polygon points="545.3499999999999,14.66 545.3499999999999,17.59 542.42,17.59" fill="#006bc1"/><rect x="568.808" y="11.728000000000002" width="5.863999999999997" height="5.863999999999997" fill="#002085"/><polygon points="568.81,11.73 571.7399999999999,11.73 571.7399999999999,14.66" fill="#e7eaf4"/><polygon points="571.74,11.73 574.67,11.73 574.67,14.66" fill="#7b344c"/><polygon points="571.7399999999999,14.66 571.7399999999999,17.59 568.81,17.59" fill="#98383f"/><polygon points="574.67,14.66 574.67,17.59 571.74,17.59" fill="#576caf"/><rect x="598.1279999999999" y="11.728000000000002" width="5.863999999999997" height="5.863999999999997" fill="#002085"/><polygon points="598.13,11.73 601.06,11.73 601.06,14.66" fill="#442b65"/><polygon points="603.9899999999999,11.73 603.9899999999999,14.66 601.06,14.66" fill="#6175b4"/><polygon points="598.13,14.66 601.06,14.66 601.06,17.59" fill="#006fc5"/><polygon points="601.06,14.66 603.9899999999999,17.59 601.06,17.59" fill="#d84221"/><rect x="627.448" y="11.728000000000002" width="5.863999999999997" height="5.863999999999997" fill="#002085"/><polygon points="627.45,11.73 630.38,11.73 627.45,14.66" fill="#008ede"/><polygon points="630.38,11.73 633.31,14.66 630.38,14.66" fill="#dce0ee"/><polygon points="627.45,14.66 630.38,14.66 627.45,17.59" fill="#663056"/><polygon points="630.38,14.66 633.31,14.66 633.31,17.59" fill="#522d5f"/><rect x="41.048" y="41.048" width="5.863999999999997" height="5.863999999999997" fill="#002085"/><polygon points="41.05,41.05 43.98,41.05 43.98,43.98" fill="#ebeef6"/><polygon points="43.98,41.05 46.91,41.05 46.91,43.98" fill="#a1add2"/><polygon points="41.05,43.98 43.98,43.98 43.98,46.91" fill="#0043a1"/><polygon points="46.91,43.98 46.91,46.91 43.98,46.91" fill="#0089da"/><rect x="99.68800000000002" y="41.048" width="5.863999999999997" height="5.863999999999997" fill="#002085"/><polygon points="102.62,41.05 102.62,43.98 99.69,43.98" fill="#0098e6"/><polygon points="102.62,41.05 105.55000000000001,43.98 102.62,43.98" fill="#8a3645"/><polygon points="99.69,43.98 102.62,43.98 99.69,46.91" fill="#c53f2a"/><polygon points="102.62,43.98 105.55000000000001,43.98 102.62,46.91" fill="#0045a3"/><rect x="129.008" y="41.048" width="5.863999999999997" height="5.863999999999997" fill="#002085"/><polygon points="131.94,41.05 131.94,43.98 129.01,43.98" fill="#004fab"/><polygon points="131.94,41.05 134.87,41.05 134.87,43.98" fill="#c94028"/><polygon points="129.01,43.98 131.94,43.98 129.01,46.91" fill="#eff1f7"/><polygon points="134.87,43.98 134.87,46.91 131.94,46.91" fill="#6d3153"/><rect x="480.848" y="41.048" width="5.863999999999997" height="5.863999999999997" fill="#002085"/><polygon points="480.85,41.05 483.78000000000003,41.05 483.78000000000003,43.98" fill="#002589"/><polygon points="483.78,41.05 486.71,41.05 483.78,43.98" fill="#0070c5"/><polygon points="480.85,43.98 483.78000000000003,43.98 483.78000000000003,46.91" fill="#adb7d8"/><polygon points="486.71,43.98 486.71,46.91 483.78,46.91" fill="#00268a"/><rect x="510.168" y="41.048" width="5.863999999999997" height="5.863999999999997" fill="#002085"/><polygon points="510.17,41.05 513.1,43.98 510.17,43.98" fill="#002589"/><polygon points="513.1,41.05 516.03,43.98 513.1,43.98" fill="#586daf"/><polygon points="513.1,43.98 513.1,46.91 510.17,46.91" fill="#0066bd"/><polygon points="513.1,43.98 516.03,43.98 513.1,46.91" fill="#223e95"/><rect x="715.408" y="41.048" width="5.863999999999997" height="5.863999999999997" fill="#002085"/><polygon points="718.3399999999999,41.05 718.3399999999999,43.98 715.41,43.98" fill="#14237c"/><polygon points="718.34,41.05 721.27,41.05 718.34,43.98" fill="#3952a0"/><polygon points="715.41,43.98 718.3399999999999,46.91 715.41,46.91" fill="#6a3154"/><polygon points="718.34,43.98 721.27,46.91 718.34,46.91" fill="#6276b4"/><rect x="11.728000000000002" y="70.368" width="5.863999999999997" height="5.863999999999997" fill="#002085"/><polygon points="14.66,70.37 14.66,73.30000000000001 11.73,73.30000000000001" fill="#003f9e"/><polygon points="14.66,70.37 17.59,70.37 17.59,73.30000000000001" fill="#b43d32"/><polygon points="11.73,73.3 14.66,73.3 11.73,76.23" fill="#425aa5"/><polygon points="14.66,73.3 17.59,73.3 17.59,76.23" fill="#8796c6"/><rect x="41.048" y="70.368" width="5.863999999999997" height="5.863999999999997" fill="#002085"/><polygon points="41.05,70.37 43.98,70.37 43.98,73.30000000000001" fill="#0071c7"/><polygon points="46.91,70.37 46.91,73.30000000000001 43.98,73.30000000000001" fill="#5e2f59"/><polygon points="41.05,73.3 43.98,73.3 41.05,76.23" fill="#0073c8"/><polygon points="43.98,73.3 46.91,76.23 43.98,76.23" fill="#7d344b"/><rect x="99.68800000000002" y="70.368" width="5.863999999999997" height="5.863999999999997" fill="#002085"/><polygon points="102.62,70.37 102.62,73.30000000000001 99.69,73.30000000000001" fill="#8e3743"/><polygon points="102.62,70.37 105.55000000000001,70.37 102.62,73.30000000000001" fill="#7b334c"/><polygon points="99.69,73.3 102.62,76.23 99.69,76.23" fill="#002c8f"/><polygon points="102.62,73.3 105.55000000000001,76.23 102.62,76.23" fill="#233e96"/><rect x="129.008" y="70.368" width="5.863999999999997" height="5.863999999999997" fill="#002085"/><polygon points="129.01,70.37 131.94,73.30000000000001 129.01,73.30000000000001" fill="#0089da"/><polygon points="131.94,70.37 134.87,73.30000000000001 131.94,73.30000000000001" fill="#c7cee4"/><polygon points="129.01,73.3 131.94,73.3 129.01,76.23" fill="#acb6d7"/><polygon points="131.94,73.3 134.87,76.23 131.94,76.23" fill="#623058"/><rect x="158.328" y="70.368" width="5.863999999999997" height="5.863999999999997" fill="#002085"/><polygon points="161.26000000000002,70.37 161.26000000000002,73.30000000000001 158.33,73.30000000000001" fill="#052588"/><polygon points="164.19,70.37 164.19,73.30000000000001 161.26,73.30000000000001" fill="#b33c32"/><polygon points="158.33,73.3 161.26000000000002,73.3 158.33,76.23" fill="#006ac0"/><polygon points="164.19,73.3 164.19,76.23 161.26,76.23" fill="#9fabd1"/><rect x="275.608" y="70.368" width="5.863999999999997" height="5.863999999999997" fill="#002085"/><polygon points="275.61,70.37 278.54,70.37 275.61,73.30000000000001" fill="#d8ddec"/><polygon points="281.47,70.37 281.47,73.30000000000001 278.54,73.30000000000001" fill="#18247a"/><polygon points="278.54,73.3 278.54,76.23 275.61,76.23" fill="#252674"/><polygon points="278.54,73.3 281.47,76.23 278.54,76.23" fill="#002b8e"/><rect x="686.088" y="70.368" width="5.863999999999997" height="5.863999999999997" fill="#002085"/><polygon points="686.09,70.37 689.02,73.30000000000001 686.09,73.30000000000001" fill="#007acd"/><polygon points="689.02,70.37 691.9499999999999,70.37 691.9499999999999,73.30000000000001" fill="#002c8f"/><polygon points="686.09,73.3 689.02,73.3 686.09,76.23" fill="#272673"/><polygon points="689.02,73.3 691.9499999999999,73.3 689.02,76.23" fill="#c4cce3"/><rect x="715.408" y="70.368" width="5.863999999999997" height="5.863999999999997" fill="#002085"/><polygon points="715.41,70.37 718.3399999999999,70.37 715.41,73.30000000000001" fill="#0068bf"/><polygon points="718.34,70.37 721.27,70.37 718.34,73.30000000000001" fill="#b8c1dd"/><polygon points="715.41,73.3 718.3399999999999,73.3 718.3399999999999,76.23" fill="#2b469a"/><polygon points="718.34,73.3 721.27,76.23 718.34,76.23" fill="#003e9e"/><rect x="11.728000000000002" y="99.68800000000002" width="5.863999999999997" height="5.863999999999997" fill="#002085"/><polygon points="14.66,99.69 14.66,102.62 11.73,102.62" fill="#13318e"/><polygon points="14.66,99.69 17.59,99.69 17.59,102.62" fill="#3f57a3"/><polygon points="11.73,102.62 14.66,105.55000000000001 11.73,105.55000000000001" fill="#edeff6"/><polygon points="17.59,102.62 17.59,105.55000000000001 14.66,105.55000000000001" fill="#0046a3"/><rect x="99.68800000000002" y="99.68800000000002" width="5.863999999999997" height="5.863999999999997" fill="#002085"/><polygon points="102.62,99.69 102.62,102.62 99.69,102.62" fill="#6c3153"/><polygon points="102.62,99.69 105.55000000000001,99.69 102.62,102.62" fill="#f6f7fb"/><polygon points="99.69,102.62 102.62,102.62 99.69,105.55000000000001" fill="#213d95"/><polygon points="102.62,102.62 105.55000000000001,105.55000000000001 102.62,105.55000000000001" fill="#d7dcec"/><rect x="187.64800000000002" y="99.68800000000002" width="5.863999999999997" height="5.863999999999997" fill="#002085"/><polygon points="187.65,99.69 190.58,99.69 187.65,102.62" fill="#6a3154"/><polygon points="190.58,99.69 193.51000000000002,99.69 190.58,102.62" fill="#102e8d"/><polygon points="190.58,102.62 190.58,105.55000000000001 187.65,105.55000000000001" fill="#002489"/><polygon points="190.58,102.62 193.51000000000002,105.55000000000001 190.58,105.55000000000001" fill="#032387"/><rect x="216.96800000000002" y="99.68800000000002" width="5.863999999999997" height="5.863999999999997" fill="#002085"/><polygon points="216.97,99.69 219.9,99.69 219.9,102.62" fill="#0070c6"/><polygon points="219.9,99.69 222.83,99.69 222.83,102.62" fill="#082789"/><polygon points="216.97,102.62 219.9,102.62 216.97,105.55000000000001" fill="#002387"/><polygon points="222.83,102.62 222.83,105.55000000000001 219.9,105.55000000000001" fill="#002488"/><rect x="480.848" y="99.68800000000002" width="5.863999999999997" height="5.863999999999997" fill="#002085"/><polygon points="480.85,99.69 483.78000000000003,99.69 480.85,102.62" fill="#0071c6"/><polygon points="486.71,99.69 486.71,102.62 483.78,102.62" fill="#7d344b"/><polygon points="480.85,102.62 483.78000000000003,102.62 480.85,105.55000000000001" fill="#6376b4"/><polygon points="486.71,102.62 486.71,105.55000000000001 483.78,105.55000000000001" fill="#008adb"/><rect x="627.448" y="99.68800000000002" width="5.863999999999997" height="5.863999999999997" fill="#002085"/><polygon points="627.45,99.69 630.38,102.62 627.45,102.62" fill="#d2d8ea"/><polygon points="633.31,99.69 633.31,102.62 630.38,102.62" fill="#c5cce3"/><polygon points="627.45,102.62 630.38,102.62 630.38,105.55000000000001" fill="#442b65"/><polygon points="633.31,102.62 633.31,105.55000000000001 630.38,105.55000000000001" fill="#18247a"/><rect x="715.408" y="99.68800000000002" width="5.863999999999997" height="5.863999999999997" fill="#002085"/><polygon points="718.3399999999999,99.69 718.3399999999999,102.62 715.41,102.62" fill="#eff1f7"/><polygon points="718.34,99.69 721.27,99.69 718.34,102.62" fill="#3e2a68"/><polygon points="715.41,102.62 718.3399999999999,102.62 715.41,105.55000000000001" fill="#2e489b"/><polygon points="718.34,102.62 721.27,102.62 721.27,105.55000000000001" fill="#432b66"/><rect x="11.728000000000002" y="129.008" width="5.863999999999997" height="5.863999999999997" fill="#002085"/><polygon points="14.66,129.01 14.66,131.94 11.73,131.94" fill="#dee2ef"/><polygon points="14.66,129.01 17.59,129.01 14.66,131.94" fill="#052183"/><polygon points="14.66,131.94 14.66,134.87 11.73,134.87" fill="#003f9e"/><polygon points="14.66,131.94 17.59,131.94 14.66,134.87" fill="#6074b3"/><rect x="70.368" y="129.008" width="5.863999999999997" height="5.863999999999997" fill="#002085"/><polygon points="73.30000000000001,129.01 73.30000000000001,131.94 70.37,131.94" fill="#de431e"/><polygon points="76.23,129.01 76.23,131.94 73.3,131.94" fill="#445ca6"/><polygon points="70.37,131.94 73.30000000000001,131.94 70.37,134.87" fill="#8190c3"/><polygon points="73.3,131.94 76.23,131.94 76.23,134.87" fill="#003596"/><rect x="99.68800000000002" y="129.008" width="5.863999999999997" height="5.863999999999997" fill="#002085"/><polygon points="99.69,129.01 102.62,129.01 102.62,131.94" fill="#9aa7cf"/><polygon points="102.62,129.01 105.55000000000001,129.01 105.55000000000001,131.94" fill="#c9d0e5"/><polygon points="99.69,131.94 102.62,131.94 102.62,134.87" fill="#003f9e"/><polygon points="102.62,131.94 105.55000000000001,134.87 102.62,134.87" fill="#003b9b"/><rect x="187.64800000000002" y="129.008" width="5.863999999999997" height="5.863999999999997" fill="#002085"/><polygon points="187.65,129.01 190.58,129.01 190.58,131.94" fill="#007bcf"/><polygon points="190.58,129.01 193.51000000000002,131.94 190.58,131.94" fill="#b23c33"/><polygon points="187.65,131.94 190.58,131.94 187.65,134.87" fill="#0073c8"/><polygon points="190.58,131.94 193.51000000000002,131.94 193.51000000000002,134.87" fill="#0c2a8b"/><rect x="246.288" y="129.008" width="5.863999999999997" height="5.863999999999997" fill="#002085"/><polygon points="249.22,129.01 249.22,131.94 246.29,131.94" fill="#006cc2"/><polygon points="249.22,129.01 252.15,129.01 249.22,131.94" fill="#75334f"/><polygon points="246.29,131.94 249.22,131.94 246.29,134.87" fill="#aeb8d8"/><polygon points="252.15,131.94 252.15,134.87 249.22,134.87" fill="#9da9d0"/><rect x="363.56800000000004" y="129.008" width="5.863999999999997" height="5.863999999999997" fill="#002085"/><polygon points="363.57,129.01 366.5,129.01 363.57,131.94" fill="#77334e"/><polygon points="366.5,129.01 369.43,131.94 366.5,131.94" fill="#002488"/><polygon points="366.5,131.94 366.5,134.87 363.57,134.87" fill="#005ab4"/><polygon points="366.5,131.94 369.43,131.94 369.43,134.87" fill="#007ed1"/><rect x="422.208" y="129.008" width="5.863999999999997" height="5.863999999999997" fill="#002085"/><polygon points="422.21,129.01 425.14,131.94 422.21,131.94" fill="#15237b"/><polygon points="428.07,129.01 428.07,131.94 425.14,131.94" fill="#798abf"/><polygon points="422.21,131.94 425.14,131.94 422.21,134.87" fill="#7788be"/><polygon points="425.14,131.94 428.07,131.94 425.14,134.87" fill="#0045a3"/><rect x="451.528" y="129.008" width="5.863999999999997" height="5.863999999999997" fill="#002085"/><polygon points="451.53,129.01 454.46,129.01 451.53,131.94" fill="#0054af"/><polygon points="454.46,129.01 457.39,131.94 454.46,131.94" fill="#9a383e"/><polygon points="451.53,131.94 454.46,134.87 451.53,134.87" fill="#e5e8f2"/><polygon points="454.46,131.94 457.39,134.87 454.46,134.87" fill="#8796c6"/><rect x="715.408" y="129.008" width="5.863999999999997" height="5.863999999999997" fill="#002085"/><polygon points="715.41,129.01 718.3399999999999,129.01 718.3399999999999,131.94" fill="#d4d9ea"/><polygon points="718.34,129.01 721.27,129.01 718.34,131.94" fill="#6377b5"/><polygon points="715.41,131.94 718.3399999999999,134.87 715.41,134.87" fill="#15237b"/><polygon points="718.34,131.94 721.27,131.94 721.27,134.87" fill="#0a288a"/><rect x="11.728000000000002" y="158.328" width="5.863999999999997" height="5.863999999999997" fill="#002085"/><polygon points="11.73,158.33 14.66,158.33 11.73,161.26000000000002" fill="#002488"/><polygon points="14.66,158.33 17.59,158.33 14.66,161.26000000000002" fill="#a6b2d5"/><polygon points="11.73,161.26 14.66,161.26 11.73,164.19" fill="#003b9b"/><polygon points="14.66,161.26 17.59,161.26 17.59,164.19" fill="#502d60"/><rect x="99.68800000000002" y="158.328" width="5.863999999999997" height="5.863999999999997" fill="#002085"/><polygon points="99.69,158.33 102.62,158.33 102.62,161.26000000000002" fill="#002488"/><polygon points="102.62,158.33 105.55000000000001,158.33 105.55000000000001,161.26000000000002" fill="#0067bf"/><polygon points="99.69,161.26 102.62,161.26 102.62,164.19" fill="#003f9e"/><polygon points="102.62,161.26 105.55000000000001,164.19 102.62,164.19" fill="#9c393d"/><rect x="158.328" y="158.328" width="5.863999999999997" height="5.863999999999997" fill="#002085"/><polygon points="158.33,158.33 161.26000000000002,158.33 161.26000000000002,161.26000000000002" fill="#98383f"/><polygon points="161.26,158.33 164.19,158.33 161.26,161.26000000000002" fill="#0078cc"/><polygon points="161.26000000000002,161.26 161.26000000000002,164.19 158.33,164.19" fill="#32286e"/><polygon points="161.26,161.26 164.19,161.26 161.26,164.19" fill="#003192"/><rect x="568.808" y="158.328" width="5.863999999999997" height="5.863999999999997" fill="#002085"/><polygon points="568.81,158.33 571.7399999999999,158.33 568.81,161.26000000000002" fill="#193691"/><polygon points="571.74,158.33 574.67,158.33 571.74,161.26000000000002" fill="#003293"/><polygon points="568.81,161.26 571.7399999999999,161.26 571.7399999999999,164.19" fill="#b83d30"/><polygon points="571.74,161.26 574.67,161.26 574.67,164.19" fill="#0072c7"/><rect x="598.1279999999999" y="158.328" width="5.863999999999997" height="5.863999999999997" fill="#002085"/><polygon points="598.13,158.33 601.06,158.33 598.13,161.26000000000002" fill="#022084"/><polygon points="601.06,158.33 603.9899999999999,161.26000000000002 601.06,161.26000000000002" fill="#9eaad1"/><polygon points="598.13,161.26 601.06,164.19 598.13,164.19" fill="#78334e"/><polygon points="601.06,161.26 603.9899999999999,161.26 601.06,164.19" fill="#ebedf5"/><rect x="627.448" y="158.328" width="5.863999999999997" height="5.863999999999997" fill="#002085"/><polygon points="627.45,158.33 630.38,161.26000000000002 627.45,161.26000000000002" fill="#005db6"/><polygon points="630.38,158.33 633.31,161.26000000000002 630.38,161.26000000000002" fill="#6b3154"/><polygon points="627.45,161.26 630.38,161.26 630.38,164.19" fill="#004ca8"/><polygon points="630.38,161.26 633.31,164.19 630.38,164.19" fill="#003899"/><rect x="656.7679999999999" y="158.328" width="5.863999999999997" height="5.863999999999997" fill="#002085"/><polygon points="656.77,158.33 659.6999999999999,158.33 659.6999999999999,161.26000000000002" fill="#4d64aa"/><polygon points="659.7,158.33 662.63,158.33 659.7,161.26000000000002" fill="#008edd"/><polygon points="656.77,161.26 659.6999999999999,161.26 659.6999999999999,164.19" fill="#0065bd"/><polygon points="662.63,161.26 662.63,164.19 659.7,164.19" fill="#8c3644"/><rect x="41.048" y="187.64800000000002" width="5.863999999999997" height="5.863999999999997" fill="#002085"/><polygon points="41.05,187.65 43.98,190.58 41.05,190.58" fill="#8494c4"/><polygon points="43.98,187.65 46.91,187.65 46.91,190.58" fill="#713251"/><polygon points="41.05,190.58 43.98,193.51000000000002 41.05,193.51000000000002" fill="#0071c6"/><polygon points="46.91,190.58 46.91,193.51000000000002 43.98,193.51000000000002" fill="#d5daeb"/><rect x="246.288" y="187.64800000000002" width="5.863999999999997" height="5.863999999999997" fill="#002085"/><polygon points="246.29,187.65 249.22,187.65 246.29,190.58" fill="#254197"/><polygon points="252.15,187.65 252.15,190.58 249.22,190.58" fill="#006fc5"/><polygon points="249.22,190.58 249.22,193.51000000000002 246.29,193.51000000000002" fill="#8090c2"/><polygon points="252.15,190.58 252.15,193.51000000000002 249.22,193.51000000000002" fill="#0046a3"/><rect x="275.608" y="187.64800000000002" width="5.863999999999997" height="5.863999999999997" fill="#002085"/><polygon points="275.61,187.65 278.54,190.58 275.61,190.58" fill="#8090c2"/><polygon points="281.47,187.65 281.47,190.58 278.54,190.58" fill="#0042a0"/><polygon points="275.61,190.58 278.54,190.58 275.61,193.51000000000002" fill="#6f81ba"/><polygon points="281.47,190.58 281.47,193.51000000000002 278.54,193.51000000000002" fill="#6c7eb8"/><rect x="363.56800000000004" y="187.64800000000002" width="5.863999999999997" height="5.863999999999997" fill="#002085"/><polygon points="363.57,187.65 366.5,190.58 363.57,190.58" fill="#042183"/><polygon points="369.43,187.65 369.43,190.58 366.5,190.58" fill="#a83b37"/><polygon points="363.57,190.58 366.5,193.51000000000002 363.57,193.51000000000002" fill="#8493c4"/><polygon points="366.5,190.58 369.43,193.51000000000002 366.5,193.51000000000002" fill="#2e2770"/><rect x="392.88800000000003" y="187.64800000000002" width="5.863999999999997" height="5.863999999999997" fill="#002085"/><polygon points="392.89,187.65 395.82,190.58 392.89,190.58" fill="#e4e7f2"/><polygon points="395.82,187.65 398.75,190.58 395.82,190.58" fill="#008edd"/><polygon points="392.89,190.58 395.82,190.58 392.89,193.51000000000002" fill="#203c94"/><polygon points="395.82,190.58 398.75,193.51000000000002 395.82,193.51000000000002" fill="#3952a0"/><rect x="422.208" y="187.64800000000002" width="5.863999999999997" height="5.863999999999997" fill="#002085"/><polygon points="422.21,187.65 425.14,190.58 422.21,190.58" fill="#c74029"/><polygon points="425.14,187.65 428.07,187.65 425.14,190.58" fill="#003092"/><polygon points="422.21,190.58 425.14,190.58 422.21,193.51000000000002" fill="#007ace"/><polygon points="425.14,190.58 428.07,190.58 425.14,193.51000000000002" fill="#d54222"/><rect x="451.528" y="187.64800000000002" width="5.863999999999997" height="5.863999999999997" fill="#002085"/><polygon points="451.53,187.65 454.46,187.65 454.46,190.58" fill="#572e5d"/><polygon points="454.46,187.65 457.39,190.58 454.46,190.58" fill="#0063bb"/><polygon points="451.53,190.58 454.46,190.58 451.53,193.51000000000002" fill="#233e96"/><polygon points="457.39,190.58 457.39,193.51000000000002 454.46,193.51000000000002" fill="#843548"/><rect x="539.4879999999999" y="187.64800000000002" width="5.863999999999997" height="5.863999999999997" fill="#002085"/><polygon points="542.42,187.65 542.42,190.58 539.49,190.58" fill="#0067be"/><polygon points="542.42,187.65 545.3499999999999,187.65 542.42,190.58" fill="#8b9ac7"/><polygon points="539.49,190.58 542.42,190.58 542.42,193.51000000000002" fill="#f5f6fa"/><polygon points="542.42,190.58 545.3499999999999,190.58 542.42,193.51000000000002" fill="#edf0f7"/><rect x="715.408" y="187.64800000000002" width="5.863999999999997" height="5.863999999999997" fill="#002085"/><polygon points="715.41,187.65 718.3399999999999,187.65 715.41,190.58" fill="#0043a2"/><polygon points="718.34,187.65 721.27,187.65 718.34,190.58" fill="#0065bd"/><polygon points="715.41,190.58 718.3399999999999,193.51000000000002 715.41,193.51000000000002" fill="#db4320"/><polygon points="721.27,190.58 721.27,193.51000000000002 718.34,193.51000000000002" fill="#e4e8f2"/><rect x="11.728000000000002" y="216.96800000000002" width="5.863999999999997" height="5.863999999999997" fill="#002085"/><polygon points="11.73,216.97 14.66,216.97 11.73,219.9" fill="#b03c34"/><polygon points="14.66,216.97 17.59,216.97 17.59,219.9" fill="#13318e"/><polygon points="11.73,219.9 14.66,222.83 11.73,222.83" fill="#8493c4"/><polygon points="14.66,219.9 17.59,219.9 14.66,222.83" fill="#687bb7"/><rect x="70.368" y="216.96800000000002" width="5.863999999999997" height="5.863999999999997" fill="#002085"/><polygon points="70.37,216.97 73.30000000000001,216.97 73.30000000000001,219.9" fill="#1f3c94"/><polygon points="73.3,216.97 76.23,219.9 73.3,219.9" fill="#586daf"/><polygon points="73.30000000000001,219.9 73.30000000000001,222.83 70.37,222.83" fill="#0078cc"/><polygon points="73.3,219.9 76.23,222.83 73.3,222.83" fill="#0044a2"/><rect x="216.96800000000002" y="216.96800000000002" width="5.863999999999997" height="5.863999999999997" fill="#002085"/><polygon points="216.97,216.97 219.9,219.9 216.97,219.9" fill="#0066be"/><polygon points="219.9,216.97 222.83,216.97 219.9,219.9" fill="#dfe3f0"/><polygon points="216.97,219.9 219.9,219.9 219.9,222.83" fill="#0f2d8c"/><polygon points="222.83,219.9 222.83,222.83 219.9,222.83" fill="#0087d8"/><rect x="275.608" y="216.96800000000002" width="5.863999999999997" height="5.863999999999997" fill="#002085"/><polygon points="275.61,216.97 278.54,216.97 275.61,219.9" fill="#602f58"/><polygon points="281.47,216.97 281.47,219.9 278.54,219.9" fill="#873546"/><polygon points="278.54,219.9 278.54,222.83 275.61,222.83" fill="#212576"/><polygon points="278.54,219.9 281.47,222.83 278.54,222.83" fill="#ce4126"/><rect x="304.928" y="216.96800000000002" width="5.863999999999997" height="5.863999999999997" fill="#002085"/><polygon points="304.93,216.97 307.86,216.97 307.86,219.9" fill="#0e227f"/><polygon points="307.86,216.97 310.79,216.97 307.86,219.9" fill="#fdfefe"/><polygon points="307.86,219.9 307.86,222.83 304.93,222.83" fill="#3a52a1"/><polygon points="307.86,219.9 310.79,219.9 307.86,222.83" fill="#092889"/><rect x="363.56800000000004" y="216.96800000000002" width="5.863999999999997" height="5.863999999999997" fill="#002085"/><polygon points="363.57,216.97 366.5,219.9 363.57,219.9" fill="#f8f9fc"/><polygon points="366.5,216.97 369.43,216.97 369.43,219.9" fill="#d84221"/><polygon points="366.5,219.9 366.5,222.83 363.57,222.83" fill="#0091e0"/><polygon points="366.5,219.9 369.43,219.9 369.43,222.83" fill="#0087d8"/><rect x="422.208" y="216.96800000000002" width="5.863999999999997" height="5.863999999999997" fill="#002085"/><polygon points="422.21,216.97 425.14,216.97 422.21,219.9" fill="#13237c"/><polygon points="425.14,216.97 428.07,219.9 425.14,219.9" fill="#2e2770"/><polygon points="422.21,219.9 425.14,219.9 422.21,222.83" fill="#0092e1"/><polygon points="428.07,219.9 428.07,222.83 425.14,222.83" fill="#272673"/><rect x="598.1279999999999" y="216.96800000000002" width="5.863999999999997" height="5.863999999999997" fill="#002085"/><polygon points="598.13,216.97 601.06,216.97 601.06,219.9" fill="#f0f1f8"/><polygon points="601.06,216.97 603.9899999999999,216.97 603.9899999999999,219.9" fill="#c8cfe5"/><polygon points="598.13,219.9 601.06,219.9 598.13,222.83" fill="#643057"/><polygon points="601.06,219.9 603.9899999999999,219.9 603.9899999999999,222.83" fill="#883646"/><rect x="686.088" y="216.96800000000002" width="5.863999999999997" height="5.863999999999997" fill="#002085"/><polygon points="686.09,216.97 689.02,219.9 686.09,219.9" fill="#6a3154"/><polygon points="691.9499999999999,216.97 691.9499999999999,219.9 689.02,219.9" fill="#0080d2"/><polygon points="686.09,219.9 689.02,219.9 686.09,222.83" fill="#042487"/><polygon points="689.02,219.9 691.9499999999999,219.9 689.02,222.83" fill="#5f2f59"/><rect x="715.408" y="216.96800000000002" width="5.863999999999997" height="5.863999999999997" fill="#002085"/><polygon points="715.41,216.97 718.3399999999999,216.97 718.3399999999999,219.9" fill="#6c7eb8"/><polygon points="718.34,216.97 721.27,219.9 718.34,219.9" fill="#472b64"/><polygon points="715.41,219.9 718.3399999999999,219.9 718.3399999999999,222.83" fill="#0091e0"/><polygon points="718.34,219.9 721.27,219.9 721.27,222.83" fill="#bfc7e1"/><rect x="11.728000000000002" y="246.288" width="5.863999999999997" height="5.863999999999997" fill="#002085"/><polygon points="11.73,246.29 14.66,246.29 14.66,249.22" fill="#a43a39"/><polygon points="14.66,246.29 17.59,246.29 14.66,249.22" fill="#092181"/><polygon points="11.73,249.22 14.66,249.22 11.73,252.15" fill="#032084"/><polygon points="14.66,249.22 17.59,249.22 14.66,252.15" fill="#6679b6"/><rect x="158.328" y="246.288" width="5.863999999999997" height="5.863999999999997" fill="#002085"/><polygon points="158.33,246.29 161.26000000000002,246.29 158.33,249.22" fill="#432b66"/><polygon points="161.26,246.29 164.19,246.29 161.26,249.22" fill="#2f286f"/><polygon points="158.33,249.22 161.26000000000002,249.22 161.26000000000002,252.15" fill="#ffffff"/><polygon points="161.26,249.22 164.19,252.15 161.26,252.15" fill="#b4bedb"/><rect x="627.448" y="246.288" width="5.863999999999997" height="5.863999999999997" fill="#002085"/><polygon points="627.45,246.29 630.38,246.29 630.38,249.22" fill="#007acd"/><polygon points="630.38,246.29 633.31,246.29 633.31,249.22" fill="#0049a6"/><polygon points="630.38,249.22 630.38,252.15 627.45,252.15" fill="#0061b9"/><polygon points="633.31,249.22 633.31,252.15 630.38,252.15" fill="#16237b"/><rect x="656.7679999999999" y="246.288" width="5.863999999999997" height="5.863999999999997" fill="#002085"/><polygon points="656.77,246.29 659.6999999999999,246.29 659.6999999999999,249.22" fill="#d2d8e9"/><polygon points="659.7,246.29 662.63,246.29 659.7,249.22" fill="#233f96"/><polygon points="659.6999999999999,249.22 659.6999999999999,252.15 656.77,252.15" fill="#0062ba"/><polygon points="659.7,249.22 662.63,249.22 659.7,252.15" fill="#a3aed3"/><rect x="686.088" y="246.288" width="5.863999999999997" height="5.863999999999997" fill="#002085"/><polygon points="689.02,246.29 689.02,249.22 686.09,249.22" fill="#0a298a"/><polygon points="689.02,246.29 691.9499999999999,246.29 689.02,249.22" fill="#3e56a2"/><polygon points="686.09,249.22 689.02,249.22 689.02,252.15" fill="#a2aed3"/><polygon points="689.02,249.22 691.9499999999999,252.15 689.02,252.15" fill="#002b8e"/><rect x="70.368" y="275.608" width="5.863999999999997" height="5.863999999999997" fill="#002085"/><polygon points="70.37,275.61 73.30000000000001,278.54 70.37,278.54" fill="#a0393b"/><polygon points="73.3,275.61 76.23,275.61 73.3,278.54" fill="#242674"/><polygon points="70.37,278.54 73.30000000000001,278.54 73.30000000000001,281.47" fill="#472b64"/><polygon points="73.3,278.54 76.23,278.54 76.23,281.47" fill="#0088d9"/><rect x="99.68800000000002" y="275.608" width="5.863999999999997" height="5.863999999999997" fill="#002085"/><polygon points="102.62,275.61 102.62,278.54 99.69,278.54" fill="#003797"/><polygon points="102.62,275.61 105.55000000000001,275.61 105.55000000000001,278.54" fill="#98a5ce"/><polygon points="99.69,278.54 102.62,278.54 102.62,281.47" fill="#004ca9"/><polygon points="102.62,278.54 105.55000000000001,278.54 102.62,281.47" fill="#002b8e"/><rect x="129.008" y="275.608" width="5.863999999999997" height="5.863999999999997" fill="#002085"/><polygon points="129.01,275.61 131.94,275.61 129.01,278.54" fill="#a4afd3"/><polygon points="131.94,275.61 134.87,275.61 134.87,278.54" fill="#ced4e8"/><polygon points="129.01,278.54 131.94,278.54 129.01,281.47" fill="#482b64"/><polygon points="131.94,278.54 134.87,281.47 131.94,281.47" fill="#0060b9"/><rect x="187.64800000000002" y="275.608" width="5.863999999999997" height="5.863999999999997" fill="#002085"/><polygon points="187.65,275.61 190.58,278.54 187.65,278.54" fill="#007dd0"/><polygon points="193.51000000000002,275.61 193.51000000000002,278.54 190.58,278.54" fill="#452b65"/><polygon points="187.65,278.54 190.58,281.47 187.65,281.47" fill="#003394"/><polygon points="190.58,278.54 193.51000000000002,281.47 190.58,281.47" fill="#b93d2f"/><rect x="334.248" y="275.608" width="5.863999999999997" height="5.863999999999997" fill="#002085"/><polygon points="337.18,275.61 337.18,278.54 334.25,278.54" fill="#1e2577"/><polygon points="337.18,275.61 340.11,275.61 337.18,278.54" fill="#b13c33"/><polygon points="337.18,278.54 337.18,281.47 334.25,281.47" fill="#582e5c"/><polygon points="337.18,278.54 340.11,278.54 337.18,281.47" fill="#5369ad"/><rect x="363.56800000000004" y="275.608" width="5.863999999999997" height="5.863999999999997" fill="#002085"/><polygon points="363.57,275.61 366.5,275.61 363.57,278.54" fill="#6074b3"/><polygon points="366.5,275.61 369.43,275.61 366.5,278.54" fill="#0076ca"/><polygon points="363.57,278.54 366.5,281.47 363.57,281.47" fill="#3f57a3"/><polygon points="369.43,278.54 369.43,281.47 366.5,281.47" fill="#005db6"/><rect x="480.848" y="275.608" width="5.863999999999997" height="5.863999999999997" fill="#002085"/><polygon points="480.85,275.61 483.78000000000003,278.54 480.85,278.54" fill="#5a2e5b"/><polygon points="486.71,275.61 486.71,278.54 483.78,278.54" fill="#009be8"/><polygon points="480.85,278.54 483.78000000000003,278.54 483.78000000000003,281.47" fill="#677ab6"/><polygon points="486.71,278.54 486.71,281.47 483.78,281.47" fill="#cbd1e6"/><rect x="598.1279999999999" y="275.608" width="5.863999999999997" height="5.863999999999997" fill="#002085"/><polygon points="601.06,275.61 601.06,278.54 598.13,278.54" fill="#96a3cd"/><polygon points="601.06,275.61 603.9899999999999,275.61 601.06,278.54" fill="#ced4e8"/><polygon points="598.13,278.54 601.06,281.47 598.13,281.47" fill="#903743"/><polygon points="601.06,278.54 603.9899999999999,278.54 601.06,281.47" fill="#c94028"/><rect x="686.088" y="275.608" width="5.863999999999997" height="5.863999999999997" fill="#002085"/><polygon points="686.09,275.61 689.02,275.61 689.02,278.54" fill="#004eaa"/><polygon points="689.02,275.61 691.9499999999999,275.61 689.02,278.54" fill="#4a2c63"/><polygon points="686.09,278.54 689.02,278.54 686.09,281.47" fill="#003898"/><polygon points="689.02,278.54 691.9499999999999,278.54 689.02,281.47" fill="#003293"/><rect x="11.728000000000002" y="304.928" width="5.863999999999997" height="5.863999999999997" fill="#002085"/><polygon points="11.73,304.93 14.66,304.93 14.66,307.86" fill="#0091e0"/><polygon points="14.66,304.93 17.59,307.86 14.66,307.86" fill="#af3c34"/><polygon points="14.66,307.86 14.66,310.79 11.73,310.79" fill="#e1e5f1"/><polygon points="17.59,307.86 17.59,310.79 14.66,310.79" fill="#007ccf"/><rect x="99.68800000000002" y="304.928" width="5.863999999999997" height="5.863999999999997" fill="#002085"/><polygon points="99.69,304.93 102.62,304.93 102.62,307.86" fill="#0076ca"/><polygon points="102.62,304.93 105.55000000000001,307.86 102.62,307.86" fill="#929fcb"/><polygon points="99.69,307.86 102.62,310.79 99.69,310.79" fill="#eff1f7"/><polygon points="102.62,307.86 105.55000000000001,307.86 105.55000000000001,310.79" fill="#873546"/><rect x="158.328" y="304.928" width="5.863999999999997" height="5.863999999999997" fill="#002085"/><polygon points="158.33,304.93 161.26000000000002,307.86 158.33,307.86" fill="#7889bf"/><polygon points="161.26,304.93 164.19,304.93 164.19,307.86" fill="#0076cb"/><polygon points="158.33,307.86 161.26000000000002,307.86 161.26000000000002,310.79" fill="#334d9e"/><polygon points="164.19,307.86 164.19,310.79 161.26,310.79" fill="#5b2e5b"/><rect x="480.848" y="304.928" width="5.863999999999997" height="5.863999999999997" fill="#002085"/><polygon points="480.85,304.93 483.78000000000003,307.86 480.85,307.86" fill="#0071c6"/><polygon points="483.78,304.93 486.71,304.93 486.71,307.86" fill="#ab3b36"/><polygon points="483.78000000000003,307.86 483.78000000000003,310.79 480.85,310.79" fill="#798abf"/><polygon points="483.78,307.86 486.71,307.86 486.71,310.79" fill="#a0393b"/><rect x="598.1279999999999" y="304.928" width="5.863999999999997" height="5.863999999999997" fill="#002085"/><polygon points="598.13,304.93 601.06,307.86 598.13,307.86" fill="#008fde"/><polygon points="603.9899999999999,304.93 603.9899999999999,307.86 601.06,307.86" fill="#6d3153"/><polygon points="601.06,307.86 601.06,310.79 598.13,310.79" fill="#193691"/><polygon points="603.9899999999999,307.86 603.9899999999999,310.79 601.06,310.79" fill="#98383f"/><rect x="686.088" y="304.928" width="5.863999999999997" height="5.863999999999997" fill="#002085"/><polygon points="686.09,304.93 689.02,304.93 689.02,307.86" fill="#008fdf"/><polygon points="689.02,304.93 691.9499999999999,307.86 689.02,307.86" fill="#db4320"/><polygon points="686.09,307.86 689.02,307.86 689.02,310.79" fill="#272673"/><polygon points="691.9499999999999,307.86 691.9499999999999,310.79 689.02,310.79" fill="#042183"/><rect x="304.928" y="334.248" width="5.863999999999997" height="5.863999999999997" fill="#002085"/><polygon points="304.93,334.25 307.86,334.25 307.86,337.18" fill="#b8c1dd"/><polygon points="307.86,334.25 310.79,334.25 310.79,337.18" fill="#0076cb"/><polygon points="304.93,337.18 307.86,337.18 304.93,340.11" fill="#bbc3de"/><polygon points="307.86,337.18 310.79,340.11 307.86,340.11" fill="#586daf"/><rect x="392.88800000000003" y="334.248" width="5.863999999999997" height="5.863999999999997" fill="#002085"/><polygon points="392.89,334.25 395.82,334.25 392.89,337.18" fill="#006bc1"/><polygon points="395.82,334.25 398.75,334.25 398.75,337.18" fill="#b63d31"/><polygon points="392.89,337.18 395.82,340.11 392.89,340.11" fill="#562e5d"/><polygon points="398.75,337.18 398.75,340.11 395.82,340.11" fill="#2e2770"/><rect x="422.208" y="334.248" width="5.863999999999997" height="5.863999999999997" fill="#002085"/><polygon points="422.21,334.25 425.14,334.25 425.14,337.18" fill="#005cb5"/><polygon points="428.07,334.25 428.07,337.18 425.14,337.18" fill="#007bce"/><polygon points="422.21,337.18 425.14,337.18 425.14,340.11" fill="#8695c5"/><polygon points="425.14,337.18 428.07,337.18 428.07,340.11" fill="#0059b3"/><rect x="510.168" y="334.248" width="5.863999999999997" height="5.863999999999997" fill="#002085"/><polygon points="510.17,334.25 513.1,334.25 510.17,337.18" fill="#0e227e"/><polygon points="513.1,334.25 516.03,334.25 513.1,337.18" fill="#cf4125"/><polygon points="510.17,337.18 513.1,337.18 510.17,340.11" fill="#192479"/><polygon points="516.03,337.18 516.03,340.11 513.1,340.11" fill="#004ba8"/><rect x="539.4879999999999" y="334.248" width="5.863999999999997" height="5.863999999999997" fill="#002085"/><polygon points="542.42,334.25 542.42,337.18 539.49,337.18" fill="#004da9"/><polygon points="542.42,334.25 545.3499999999999,337.18 542.42,337.18" fill="#272673"/><polygon points="539.49,337.18 542.42,340.11 539.49,340.11" fill="#a0393b"/><polygon points="545.3499999999999,337.18 545.3499999999999,340.11 542.42,340.11" fill="#d2d8ea"/><rect x="715.408" y="334.248" width="5.863999999999997" height="5.863999999999997" fill="#002085"/><polygon points="718.3399999999999,334.25 718.3399999999999,337.18 715.41,337.18" fill="#10237d"/><polygon points="718.34,334.25 721.27,337.18 718.34,337.18" fill="#6578b5"/><polygon points="718.3399999999999,337.18 718.3399999999999,340.11 715.41,340.11" fill="#edeff6"/><polygon points="718.34,337.18 721.27,340.11 718.34,340.11" fill="#472b64"/><rect x="70.368" y="363.56800000000004" width="5.863999999999997" height="5.863999999999997" fill="#002085"/><polygon points="70.37,363.57 73.30000000000001,366.5 70.37,366.5" fill="#ebeef6"/><polygon points="76.23,363.57 76.23,366.5 73.3,366.5" fill="#9aa7cf"/><polygon points="70.37,366.5 73.30000000000001,366.5 70.37,369.43" fill="#005fb8"/><polygon points="76.23,366.5 76.23,369.43 73.3,369.43" fill="#092889"/><rect x="158.328" y="363.56800000000004" width="5.863999999999997" height="5.863999999999997" fill="#002085"/><polygon points="158.33,363.57 161.26000000000002,363.57 158.33,366.5" fill="#c13f2c"/><polygon points="164.19,363.57 164.19,366.5 161.26,366.5" fill="#e1441d"/><polygon points="158.33,366.5 161.26000000000002,366.5 161.26000000000002,369.43" fill="#5b70b1"/><polygon points="164.19,366.5 164.19,369.43 161.26,369.43" fill="#9c393d"/><rect x="216.96800000000002" y="363.56800000000004" width="5.863999999999997" height="5.863999999999997" fill="#002085"/><polygon points="216.97,363.57 219.9,363.57 216.97,366.5" fill="#c94028"/><polygon points="219.9,363.57 222.83,363.57 222.83,366.5" fill="#008ada"/><polygon points="216.97,366.5 219.9,369.43 216.97,369.43" fill="#eff1f8"/><polygon points="219.9,366.5 222.83,366.5 222.83,369.43" fill="#0043a1"/><rect x="304.928" y="363.56800000000004" width="5.863999999999997" height="5.863999999999997" fill="#002085"/><polygon points="307.86,363.57 307.86,366.5 304.93,366.5" fill="#0047a5"/><polygon points="307.86,363.57 310.79,363.57 307.86,366.5" fill="#0096e4"/><polygon points="304.93,366.5 307.86,366.5 304.93,369.43" fill="#dfe3f0"/><polygon points="310.79,366.5 310.79,369.43 307.86,369.43" fill="#0079cd"/><rect x="422.208" y="363.56800000000004" width="5.863999999999997" height="5.863999999999997" fill="#002085"/><polygon points="422.21,363.57 425.14,363.57 425.14,366.5" fill="#0053ae"/><polygon points="425.14,363.57 428.07,363.57 425.14,366.5" fill="#a83b37"/><polygon points="422.21,366.5 425.14,369.43 422.21,369.43" fill="#697cb7"/><polygon points="428.07,366.5 428.07,369.43 425.14,369.43" fill="#6b3154"/><rect x="480.848" y="363.56800000000004" width="5.863999999999997" height="5.863999999999997" fill="#002085"/><polygon points="480.85,363.57 483.78000000000003,363.57 480.85,366.5" fill="#35286c"/><polygon points="486.71,363.57 486.71,366.5 483.78,366.5" fill="#0074c9"/><polygon points="480.85,366.5 483.78000000000003,369.43 480.85,369.43" fill="#452b65"/><polygon points="483.78,366.5 486.71,366.5 486.71,369.43" fill="#c6cde4"/><rect x="627.448" y="363.56800000000004" width="5.863999999999997" height="5.863999999999997" fill="#002085"/><polygon points="630.38,363.57 630.38,366.5 627.45,366.5" fill="#007fd1"/><polygon points="630.38,363.57 633.31,366.5 630.38,366.5" fill="#d0d6e9"/><polygon points="630.38,366.5 630.38,369.43 627.45,369.43" fill="#0076cb"/><polygon points="633.31,366.5 633.31,369.43 630.38,369.43" fill="#0060b9"/><rect x="686.088" y="363.56800000000004" width="5.863999999999997" height="5.863999999999997" fill="#002085"/><polygon points="686.09,363.57 689.02,366.5 686.09,366.5" fill="#9eaad0"/><polygon points="689.02,363.57 691.9499999999999,366.5 689.02,366.5" fill="#afb9d9"/><polygon points="686.09,366.5 689.02,369.43 686.09,369.43" fill="#576caf"/><polygon points="689.02,366.5 691.9499999999999,366.5 691.9499999999999,369.43" fill="#005fb8"/><rect x="99.68800000000002" y="392.88800000000003" width="5.863999999999997" height="5.863999999999997" fill="#002085"/><polygon points="99.69,392.89 102.62,392.89 99.69,395.82" fill="#212576"/><polygon points="105.55000000000001,392.89 105.55000000000001,395.82 102.62,395.82" fill="#6e3252"/><polygon points="102.62,395.82 102.62,398.75 99.69,398.75" fill="#d3d9ea"/><polygon points="102.62,395.82 105.55000000000001,395.82 102.62,398.75" fill="#8292c3"/><rect x="246.288" y="392.88800000000003" width="5.863999999999997" height="5.863999999999997" fill="#002085"/><polygon points="246.29,392.89 249.22,392.89 246.29,395.82" fill="#008bdc"/><polygon points="249.22,392.89 252.15,395.82 249.22,395.82" fill="#9ba8cf"/><polygon points="246.29,395.82 249.22,395.82 246.29,398.75" fill="#b73d31"/><polygon points="249.22,395.82 252.15,395.82 252.15,398.75" fill="#2e2770"/><rect x="334.248" y="392.88800000000003" width="5.863999999999997" height="5.863999999999997" fill="#002085"/><polygon points="334.25,392.89 337.18,392.89 337.18,395.82" fill="#213d95"/><polygon points="337.18,392.89 340.11,392.89 337.18,395.82" fill="#0049a6"/><polygon points="334.25,395.82 337.18,395.82 337.18,398.75" fill="#002d8f"/><polygon points="337.18,395.82 340.11,398.75 337.18,398.75" fill="#3b296a"/><rect x="363.56800000000004" y="392.88800000000003" width="5.863999999999997" height="5.863999999999997" fill="#002085"/><polygon points="363.57,392.89 366.5,395.82 363.57,395.82" fill="#8998c7"/><polygon points="369.43,392.89 369.43,395.82 366.5,395.82" fill="#a73b38"/><polygon points="363.57,395.82 366.5,398.75 363.57,398.75" fill="#4058a4"/><polygon points="366.5,395.82 369.43,395.82 369.43,398.75" fill="#432b66"/><rect x="480.848" y="392.88800000000003" width="5.863999999999997" height="5.863999999999997" fill="#002085"/><polygon points="480.85,392.89 483.78000000000003,392.89 480.85,395.82" fill="#6175b4"/><polygon points="486.71,392.89 486.71,395.82 483.78,395.82" fill="#00298c"/><polygon points="480.85,395.82 483.78000000000003,398.75 480.85,398.75" fill="#a73b38"/><polygon points="486.71,395.82 486.71,398.75 483.78,398.75" fill="#0082d4"/><rect x="510.168" y="392.88800000000003" width="5.863999999999997" height="5.863999999999997" fill="#002085"/><polygon points="513.1,392.89 513.1,395.82 510.17,395.82" fill="#943740"/><polygon points="513.1,392.89 516.03,392.89 513.1,395.82" fill="#0055b0"/><polygon points="513.1,395.82 513.1,398.75 510.17,398.75" fill="#12237d"/><polygon points="513.1,395.82 516.03,398.75 513.1,398.75" fill="#462b65"/><rect x="539.4879999999999" y="392.88800000000003" width="5.863999999999997" height="5.863999999999997" fill="#002085"/><polygon points="539.49,392.89 542.42,395.82 539.49,395.82" fill="#a9b4d6"/><polygon points="542.42,392.89 545.3499999999999,392.89 545.3499999999999,395.82" fill="#425aa5"/><polygon points="542.42,395.82 542.42,398.75 539.49,398.75" fill="#fcfcfd"/><polygon points="542.42,395.82 545.3499999999999,395.82 545.3499999999999,398.75" fill="#13237c"/><rect x="568.808" y="392.88800000000003" width="5.863999999999997" height="5.863999999999997" fill="#002085"/><polygon points="568.81,392.89 571.7399999999999,395.82 568.81,395.82" fill="#0082d4"/><polygon points="571.74,392.89 574.67,392.89 574.67,395.82" fill="#0080d2"/><polygon points="571.7399999999999,395.82 571.7399999999999,398.75 568.81,398.75" fill="#697cb7"/><polygon points="571.74,395.82 574.67,395.82 571.74,398.75" fill="#007ace"/><rect x="598.1279999999999" y="392.88800000000003" width="5.863999999999997" height="5.863999999999997" fill="#002085"/><polygon points="598.13,392.89 601.06,395.82 598.13,395.82" fill="#495fa8"/><polygon points="601.06,392.89 603.9899999999999,392.89 603.9899999999999,395.82" fill="#d14124"/><polygon points="601.06,395.82 601.06,398.75 598.13,398.75" fill="#663056"/><polygon points="601.06,395.82 603.9899999999999,395.82 601.06,398.75" fill="#492c63"/><rect x="686.088" y="392.88800000000003" width="5.863999999999997" height="5.863999999999997" fill="#002085"/><polygon points="686.09,392.89 689.02,395.82 686.09,395.82" fill="#683155"/><polygon points="691.9499999999999,392.89 691.9499999999999,395.82 689.02,395.82" fill="#7c8dc0"/><polygon points="686.09,395.82 689.02,398.75 686.09,398.75" fill="#0083d5"/><polygon points="689.02,395.82 691.9499999999999,395.82 691.9499999999999,398.75" fill="#0090df"/><rect x="70.368" y="422.208" width="5.863999999999997" height="5.863999999999997" fill="#002085"/><polygon points="73.30000000000001,422.21 73.30000000000001,425.14 70.37,425.14" fill="#004aa7"/><polygon points="73.3,422.21 76.23,422.21 76.23,425.14" fill="#7486bd"/><polygon points="70.37,425.14 73.30000000000001,428.07 70.37,428.07" fill="#012084"/><polygon points="76.23,425.14 76.23,428.07 73.3,428.07" fill="#edeff6"/><rect x="158.328" y="422.208" width="5.863999999999997" height="5.863999999999997" fill="#002085"/><polygon points="158.33,422.21 161.26000000000002,425.14 158.33,425.14" fill="#6d3153"/><polygon points="161.26,422.21 164.19,422.21 164.19,425.14" fill="#0064bc"/><polygon points="158.33,425.14 161.26000000000002,425.14 158.33,428.07" fill="#193691"/><polygon points="161.26,425.14 164.19,428.07 161.26,428.07" fill="#7d8dc1"/><rect x="275.608" y="422.208" width="5.863999999999997" height="5.863999999999997" fill="#002085"/><polygon points="278.54,422.21 278.54,425.14 275.61,425.14" fill="#006fc5"/><polygon points="278.54,422.21 281.47,422.21 278.54,425.14" fill="#eceef6"/><polygon points="275.61,425.14 278.54,425.14 278.54,428.07" fill="#003c9c"/><polygon points="278.54,425.14 281.47,425.14 281.47,428.07" fill="#77334e"/><rect x="363.56800000000004" y="422.208" width="5.863999999999997" height="5.863999999999997" fill="#002085"/><polygon points="366.5,422.21 366.5,425.14 363.57,425.14" fill="#1d2578"/><polygon points="369.43,422.21 369.43,425.14 366.5,425.14" fill="#002287"/><polygon points="363.57,425.14 366.5,425.14 363.57,428.07" fill="#19247a"/><polygon points="366.5,425.14 369.43,428.07 366.5,428.07" fill="#37509f"/><rect x="422.208" y="422.208" width="5.863999999999997" height="5.863999999999997" fill="#002085"/><polygon points="422.21,422.21 425.14,425.14 422.21,425.14" fill="#006bc1"/><polygon points="425.14,422.21 428.07,422.21 425.14,425.14" fill="#193691"/><polygon points="422.21,425.14 425.14,425.14 422.21,428.07" fill="#008adb"/><polygon points="425.14,425.14 428.07,425.14 428.07,428.07" fill="#0b2280"/><rect x="686.088" y="422.208" width="5.863999999999997" height="5.863999999999997" fill="#002085"/><polygon points="686.09,422.21 689.02,422.21 689.02,425.14" fill="#0077cb"/><polygon points="689.02,422.21 691.9499999999999,422.21 691.9499999999999,425.14" fill="#193691"/><polygon points="686.09,425.14 689.02,428.07 686.09,428.07" fill="#de431e"/><polygon points="691.9499999999999,425.14 691.9499999999999,428.07 689.02,428.07" fill="#0085d6"/><rect x="715.408" y="422.208" width="5.863999999999997" height="5.863999999999997" fill="#002085"/><polygon points="715.41,422.21 718.3399999999999,425.14 715.41,425.14" fill="#b4bddb"/><polygon points="718.34,422.21 721.27,422.21 718.34,425.14" fill="#687bb7"/><polygon points="715.41,425.14 718.3399999999999,425.14 718.3399999999999,428.07" fill="#274298"/><polygon points="718.34,425.14 721.27,428.07 718.34,428.07" fill="#1d3a93"/><rect x="11.728000000000002" y="451.528" width="5.863999999999997" height="5.863999999999997" fill="#002085"/><polygon points="11.73,451.53 14.66,451.53 11.73,454.46" fill="#0099e7"/><polygon points="14.66,451.53 17.59,451.53 17.59,454.46" fill="#37509f"/><polygon points="14.66,454.46 14.66,457.39 11.73,457.39" fill="#006dc3"/><polygon points="14.66,454.46 17.59,454.46 14.66,457.39" fill="#003d9c"/><rect x="41.048" y="451.528" width="5.863999999999997" height="5.863999999999997" fill="#002085"/><polygon points="43.98,451.53 43.98,454.46 41.05,454.46" fill="#005eb7"/><polygon points="46.91,451.53 46.91,454.46 43.98,454.46" fill="#0c2a8b"/><polygon points="41.05,454.46 43.98,454.46 41.05,457.39" fill="#3851a0"/><polygon points="43.98,454.46 46.91,457.39 43.98,457.39" fill="#823549"/><rect x="304.928" y="451.528" width="5.863999999999997" height="5.863999999999997" fill="#002085"/><polygon points="307.86,451.53 307.86,454.46 304.93,454.46" fill="#4d2c61"/><polygon points="310.79,451.53 310.79,454.46 307.86,454.46" fill="#dadfee"/><polygon points="307.86,454.46 307.86,457.39 304.93,457.39" fill="#0093e2"/><polygon points="307.86,454.46 310.79,454.46 310.79,457.39" fill="#0070c5"/><rect x="392.88800000000003" y="451.528" width="5.863999999999997" height="5.863999999999997" fill="#002085"/><polygon points="392.89,451.53 395.82,451.53 392.89,454.46" fill="#005fb8"/><polygon points="395.82,451.53 398.75,451.53 398.75,454.46" fill="#0099e7"/><polygon points="395.82,454.46 395.82,457.39 392.89,457.39" fill="#b8c1dd"/><polygon points="398.75,454.46 398.75,457.39 395.82,457.39" fill="#008bdc"/><rect x="422.208" y="451.528" width="5.863999999999997" height="5.863999999999997" fill="#002085"/><polygon points="422.21,451.53 425.14,451.53 422.21,454.46" fill="#002e90"/><polygon points="425.14,451.53 428.07,451.53 428.07,454.46" fill="#a0393b"/><polygon points="422.21,454.46 425.14,457.39 422.21,457.39" fill="#2f276f"/><polygon points="425.14,454.46 428.07,454.46 425.14,457.39" fill="#3c54a2"/><rect x="715.408" y="451.528" width="5.863999999999997" height="5.863999999999997" fill="#002085"/><polygon points="715.41,451.53 718.3399999999999,451.53 715.41,454.46" fill="#f9fafc"/><polygon points="718.34,451.53 721.27,451.53 721.27,454.46" fill="#b73d30"/><polygon points="715.41,454.46 718.3399999999999,454.46 718.3399999999999,457.39" fill="#7b8cc0"/><polygon points="721.27,454.46 721.27,457.39 718.34,457.39" fill="#db4320"/><rect x="41.048" y="480.848" width="5.863999999999997" height="5.863999999999997" fill="#002085"/><polygon points="41.05,480.85 43.98,480.85 43.98,483.78000000000003" fill="#9ba7cf"/><polygon points="46.91,480.85 46.91,483.78000000000003 43.98,483.78000000000003" fill="#324b9d"/><polygon points="43.98,483.78 43.98,486.71 41.05,486.71" fill="#7a8bbf"/><polygon points="43.98,483.78 46.91,483.78 46.91,486.71" fill="#3b296a"/><rect x="70.368" y="480.848" width="5.863999999999997" height="5.863999999999997" fill="#002085"/><polygon points="70.37,480.85 73.30000000000001,483.78000000000003 70.37,483.78000000000003" fill="#d04125"/><polygon points="73.3,480.85 76.23,483.78000000000003 73.3,483.78000000000003" fill="#334d9d"/><polygon points="70.37,483.78 73.30000000000001,483.78 70.37,486.71" fill="#3c55a2"/><polygon points="73.3,483.78 76.23,483.78 76.23,486.71" fill="#0085d6"/><rect x="187.64800000000002" y="480.848" width="5.863999999999997" height="5.863999999999997" fill="#002085"/><polygon points="187.65,480.85 190.58,483.78000000000003 187.65,483.78000000000003" fill="#30286f"/><polygon points="190.58,480.85 193.51000000000002,480.85 190.58,483.78000000000003" fill="#0057b1"/><polygon points="187.65,483.78 190.58,483.78 187.65,486.71" fill="#0091e0"/><polygon points="190.58,483.78 193.51000000000002,483.78 193.51000000000002,486.71" fill="#00278b"/><rect x="275.608" y="480.848" width="5.863999999999997" height="5.863999999999997" fill="#002085"/><polygon points="275.61,480.85 278.54,483.78000000000003 275.61,483.78000000000003" fill="#006cc2"/><polygon points="278.54,480.85 281.47,480.85 281.47,483.78000000000003" fill="#007ace"/><polygon points="275.61,483.78 278.54,483.78 278.54,486.71" fill="#cb4027"/><polygon points="278.54,483.78 281.47,486.71 278.54,486.71" fill="#b93d2f"/><rect x="363.56800000000004" y="480.848" width="5.863999999999997" height="5.863999999999997" fill="#002085"/><polygon points="363.57,480.85 366.5,480.85 366.5,483.78000000000003" fill="#002d90"/><polygon points="369.43,480.85 369.43,483.78000000000003 366.5,483.78000000000003" fill="#0072c7"/><polygon points="363.57,483.78 366.5,483.78 363.57,486.71" fill="#4259a4"/><polygon points="369.43,483.78 369.43,486.71 366.5,486.71" fill="#d1d6e9"/><rect x="510.168" y="480.848" width="5.863999999999997" height="5.863999999999997" fill="#002085"/><polygon points="510.17,480.85 513.1,480.85 510.17,483.78000000000003" fill="#004ba7"/><polygon points="513.1,480.85 516.03,483.78000000000003 513.1,483.78000000000003" fill="#b4bddb"/><polygon points="513.1,483.78 513.1,486.71 510.17,486.71" fill="#7183bb"/><polygon points="513.1,483.78 516.03,486.71 513.1,486.71" fill="#008fde"/><rect x="598.1279999999999" y="480.848" width="5.863999999999997" height="5.863999999999997" fill="#002085"/><polygon points="601.06,480.85 601.06,483.78000000000003 598.13,483.78000000000003" fill="#697cb7"/><polygon points="601.06,480.85 603.9899999999999,480.85 603.9899999999999,483.78000000000003" fill="#1a3791"/><polygon points="601.06,483.78 601.06,486.71 598.13,486.71" fill="#f5f6fa"/><polygon points="601.06,483.78 603.9899999999999,486.71 601.06,486.71" fill="#843548"/><rect x="656.7679999999999" y="480.848" width="5.863999999999997" height="5.863999999999997" fill="#002085"/><polygon points="656.77,480.85 659.6999999999999,483.78000000000003 656.77,483.78000000000003" fill="#abb6d7"/><polygon points="659.7,480.85 662.63,483.78000000000003 659.7,483.78000000000003" fill="#3b296a"/><polygon points="656.77,483.78 659.6999999999999,483.78 659.6999999999999,486.71" fill="#5469ad"/><polygon points="659.7,483.78 662.63,483.78 662.63,486.71" fill="#ced4e8"/><rect x="41.048" y="510.168" width="5.863999999999997" height="5.863999999999997" fill="#002085"/><polygon points="43.98,510.17 43.98,513.1 41.05,513.1" fill="#006ac0"/><polygon points="46.91,510.17 46.91,513.1 43.98,513.1" fill="#0088d9"/><polygon points="41.05,513.1 43.98,513.1 41.05,516.03" fill="#0090df"/><polygon points="43.98,513.1 46.91,513.1 43.98,516.03" fill="#76334e"/><rect x="187.64800000000002" y="510.168" width="5.863999999999997" height="5.863999999999997" fill="#002085"/><polygon points="187.65,510.17 190.58,510.17 190.58,513.1" fill="#643057"/><polygon points="193.51000000000002,510.17 193.51000000000002,513.1 190.58,513.1" fill="#ccd3e7"/><polygon points="190.58,513.1 190.58,516.03 187.65,516.03" fill="#007dd0"/><polygon points="190.58,513.1 193.51000000000002,513.1 193.51000000000002,516.03" fill="#042487"/><rect x="216.96800000000002" y="510.168" width="5.863999999999997" height="5.863999999999997" fill="#002085"/><polygon points="216.97,510.17 219.9,510.17 219.9,513.1" fill="#32286e"/><polygon points="219.9,510.17 222.83,510.17 219.9,513.1" fill="#003797"/><polygon points="219.9,513.1 219.9,516.03 216.97,516.03" fill="#687bb7"/><polygon points="219.9,513.1 222.83,513.1 222.83,516.03" fill="#0068bf"/><rect x="246.288" y="510.168" width="5.863999999999997" height="5.863999999999997" fill="#002085"/><polygon points="246.29,510.17 249.22,510.17 249.22,513.1" fill="#0075ca"/><polygon points="249.22,510.17 252.15,510.17 249.22,513.1" fill="#6c3153"/><polygon points="246.29,513.1 249.22,513.1 249.22,516.03" fill="#0065bc"/><polygon points="252.15,513.1 252.15,516.03 249.22,516.03" fill="#74324f"/><rect x="275.608" y="510.168" width="5.863999999999997" height="5.863999999999997" fill="#002085"/><polygon points="275.61,510.17 278.54,510.17 275.61,513.1" fill="#0089da"/><polygon points="281.47,510.17 281.47,513.1 278.54,513.1" fill="#d84221"/><polygon points="275.61,513.1 278.54,513.1 278.54,516.03" fill="#612f58"/><polygon points="278.54,513.1 281.47,513.1 278.54,516.03" fill="#9d393c"/><rect x="715.408" y="510.168" width="5.863999999999997" height="5.863999999999997" fill="#002085"/><polygon points="715.41,510.17 718.3399999999999,510.17 718.3399999999999,513.1" fill="#0071c6"/><polygon points="718.34,510.17 721.27,510.17 718.34,513.1" fill="#5c71b1"/><polygon points="715.41,513.1 718.3399999999999,513.1 715.41,516.03" fill="#008ede"/><polygon points="718.34,513.1 721.27,513.1 718.34,516.03" fill="#0044a2"/><rect x="11.728000000000002" y="539.4879999999999" width="5.863999999999997" height="5.863999999999997" fill="#002085"/><polygon points="11.73,539.49 14.66,539.49 14.66,542.42" fill="#003999"/><polygon points="17.59,539.49 17.59,542.42 14.66,542.42" fill="#aa3b36"/><polygon points="14.66,542.42 14.66,545.3499999999999 11.73,545.3499999999999" fill="#7284bb"/><polygon points="17.59,542.42 17.59,545.3499999999999 14.66,545.3499999999999" fill="#8d3644"/><rect x="41.048" y="539.4879999999999" width="5.863999999999997" height="5.863999999999997" fill="#002085"/><polygon points="43.98,539.49 43.98,542.42 41.05,542.42" fill="#7d344b"/><polygon points="43.98,539.49 46.91,539.49 43.98,542.42" fill="#32286e"/><polygon points="41.05,542.42 43.98,542.42 41.05,545.3499999999999" fill="#a23a3a"/><polygon points="46.91,542.42 46.91,545.3499999999999 43.98,545.3499999999999" fill="#643057"/><rect x="187.64800000000002" y="539.4879999999999" width="5.863999999999997" height="5.863999999999997" fill="#002085"/><polygon points="187.65,539.49 190.58,539.49 190.58,542.42" fill="#3d2a69"/><polygon points="193.51000000000002,539.49 193.51000000000002,542.42 190.58,542.42" fill="#ebedf5"/><polygon points="187.65,542.42 190.58,542.42 190.58,545.3499999999999" fill="#a1add2"/><polygon points="193.51000000000002,542.42 193.51000000000002,545.3499999999999 190.58,545.3499999999999" fill="#7182bb"/><rect x="216.96800000000002" y="539.4879999999999" width="5.863999999999997" height="5.863999999999997" fill="#002085"/><polygon points="216.97,539.49 219.9,542.42 216.97,542.42" fill="#d64222"/><polygon points="219.9,539.49 222.83,542.42 219.9,542.42" fill="#15328f"/><polygon points="216.97,542.42 219.9,545.3499999999999 216.97,545.3499999999999" fill="#0056b1"/><polygon points="219.9,542.42 222.83,542.42 219.9,545.3499999999999" fill="#232675"/><rect x="246.288" y="539.4879999999999" width="5.863999999999997" height="5.863999999999997" fill="#002085"/><polygon points="246.29,539.49 249.22,539.49 246.29,542.42" fill="#75334f"/><polygon points="252.15,539.49 252.15,542.42 249.22,542.42" fill="#e3e6f1"/><polygon points="246.29,542.42 249.22,545.3499999999999 246.29,545.3499999999999" fill="#002185"/><polygon points="249.22,542.42 252.15,542.42 252.15,545.3499999999999" fill="#455ca6"/><rect x="275.608" y="539.4879999999999" width="5.863999999999997" height="5.863999999999997" fill="#002085"/><polygon points="275.61,539.49 278.54,542.42 275.61,542.42" fill="#003395"/><polygon points="281.47,539.49 281.47,542.42 278.54,542.42" fill="#6e3152"/><polygon points="275.61,542.42 278.54,542.42 275.61,545.3499999999999" fill="#003193"/><polygon points="278.54,542.42 281.47,542.42 281.47,545.3499999999999" fill="#003e9d"/><rect x="363.56800000000004" y="539.4879999999999" width="5.863999999999997" height="5.863999999999997" fill="#002085"/><polygon points="363.57,539.49 366.5,539.49 363.57,542.42" fill="#004da9"/><polygon points="369.43,539.49 369.43,542.42 366.5,542.42" fill="#003394"/><polygon points="366.5,542.42 366.5,545.3499999999999 363.57,545.3499999999999" fill="#004ca8"/><polygon points="366.5,542.42 369.43,542.42 369.43,545.3499999999999" fill="#c03e2c"/><rect x="539.4879999999999" y="539.4879999999999" width="5.863999999999997" height="5.863999999999997" fill="#002085"/><polygon points="542.42,539.49 542.42,542.42 539.49,542.42" fill="#0077cb"/><polygon points="545.3499999999999,539.49 545.3499999999999,542.42 542.42,542.42" fill="#512d5f"/><polygon points="539.49,542.42 542.42,542.42 539.49,545.3499999999999" fill="#4e2c61"/><polygon points="542.42,542.42 545.3499999999999,542.42 545.3499999999999,545.3499999999999" fill="#3e56a3"/><rect x="627.448" y="539.4879999999999" width="5.863999999999997" height="5.863999999999997" fill="#002085"/><polygon points="627.45,539.49 630.38,539.49 627.45,542.42" fill="#592e5c"/><polygon points="630.38,539.49 633.31,542.42 630.38,542.42" fill="#006ac1"/><polygon points="627.45,542.42 630.38,545.3499999999999 627.45,545.3499999999999" fill="#5268ac"/><polygon points="630.38,542.42 633.31,542.42 633.31,545.3499999999999" fill="#6e3152"/><rect x="686.088" y="539.4879999999999" width="5.863999999999997" height="5.863999999999997" fill="#002085"/><polygon points="689.02,539.49 689.02,542.42 686.09,542.42" fill="#0050ab"/><polygon points="689.02,539.49 691.9499999999999,539.49 689.02,542.42" fill="#3e2a68"/><polygon points="686.09,542.42 689.02,542.42 686.09,545.3499999999999" fill="#b5bfdc"/><polygon points="689.02,542.42 691.9499999999999,545.3499999999999 689.02,545.3499999999999" fill="#6b7db8"/><rect x="41.048" y="568.808" width="5.863999999999997" height="5.863999999999997" fill="#002085"/><polygon points="41.05,568.81 43.98,568.81 43.98,571.7399999999999" fill="#1c3992"/><polygon points="43.98,568.81 46.91,568.81 43.98,571.7399999999999" fill="#4d2c61"/><polygon points="41.05,571.74 43.98,574.67 41.05,574.67" fill="#292772"/><polygon points="43.98,571.74 46.91,571.74 43.98,574.67" fill="#2b2771"/><rect x="129.008" y="568.808" width="5.863999999999997" height="5.863999999999997" fill="#002085"/><polygon points="129.01,568.81 131.94,568.81 131.94,571.7399999999999" fill="#99383e"/><polygon points="131.94,568.81 134.87,571.7399999999999 131.94,571.7399999999999" fill="#0d2c8b"/><polygon points="129.01,571.74 131.94,574.67 129.01,574.67" fill="#252674"/><polygon points="131.94,571.74 134.87,571.74 131.94,574.67" fill="#0096e4"/><rect x="158.328" y="568.808" width="5.863999999999997" height="5.863999999999997" fill="#002085"/><polygon points="161.26000000000002,568.81 161.26000000000002,571.7399999999999 158.33,571.7399999999999" fill="#0c2a8b"/><polygon points="164.19,568.81 164.19,571.7399999999999 161.26,571.7399999999999" fill="#713251"/><polygon points="158.33,571.74 161.26000000000002,571.74 158.33,574.67" fill="#79334d"/><polygon points="164.19,571.74 164.19,574.67 161.26,574.67" fill="#0068bf"/><rect x="246.288" y="568.808" width="5.863999999999997" height="5.863999999999997" fill="#002085"/><polygon points="246.29,568.81 249.22,568.81 249.22,571.7399999999999" fill="#9a383e"/><polygon points="249.22,568.81 252.15,568.81 252.15,571.7399999999999" fill="#798abf"/><polygon points="246.29,571.74 249.22,574.67 246.29,574.67" fill="#f2f4f9"/><polygon points="249.22,571.74 252.15,571.74 252.15,574.67" fill="#8292c3"/><rect x="451.528" y="568.808" width="5.863999999999997" height="5.863999999999997" fill="#002085"/><polygon points="454.46,568.81 454.46,571.7399999999999 451.53,571.7399999999999" fill="#002c8f"/><polygon points="457.39,568.81 457.39,571.7399999999999 454.46,571.7399999999999" fill="#9c393d"/><polygon points="451.53,571.74 454.46,571.74 451.53,574.67" fill="#003697"/><polygon points="454.46,571.74 457.39,571.74 457.39,574.67" fill="#aeb8d8"/><rect x="598.1279999999999" y="568.808" width="5.863999999999997" height="5.863999999999997" fill="#002085"/><polygon points="601.06,568.81 601.06,571.7399999999999 598.13,571.7399999999999" fill="#633057"/><polygon points="601.06,568.81 603.9899999999999,568.81 601.06,571.7399999999999" fill="#c53f2a"/><polygon points="601.06,571.74 601.06,574.67 598.13,574.67" fill="#a93b37"/><polygon points="601.06,571.74 603.9899999999999,571.74 601.06,574.67" fill="#002085"/><rect x="656.7679999999999" y="568.808" width="5.863999999999997" height="5.863999999999997" fill="#002085"/><polygon points="656.77,568.81 659.6999999999999,568.81 656.77,571.7399999999999" fill="#5c71b1"/><polygon points="659.7,568.81 662.63,571.7399999999999 659.7,571.7399999999999" fill="#006fc4"/><polygon points="656.77,571.74 659.6999999999999,574.67 656.77,574.67" fill="#003f9e"/><polygon points="662.63,571.74 662.63,574.67 659.7,574.67" fill="#2a2772"/><rect x="715.408" y="568.808" width="5.863999999999997" height="5.863999999999997" fill="#002085"/><polygon points="715.41,568.81 718.3399999999999,571.7399999999999 715.41,571.7399999999999" fill="#afb9d9"/><polygon points="721.27,568.81 721.27,571.7399999999999 718.34,571.7399999999999" fill="#7989bf"/><polygon points="715.41,571.74 718.3399999999999,571.74 715.41,574.67" fill="#052588"/><polygon points="718.34,571.74 721.27,574.67 718.34,574.67" fill="#2d2770"/><rect x="70.368" y="598.1279999999999" width="5.863999999999997" height="5.863999999999997" fill="#002085"/><polygon points="70.37,598.13 73.30000000000001,598.13 70.37,601.06" fill="#b4bedb"/><polygon points="73.3,598.13 76.23,598.13 76.23,601.06" fill="#df431e"/><polygon points="73.30000000000001,601.06 73.30000000000001,603.9899999999999 70.37,603.9899999999999" fill="#003c9c"/><polygon points="76.23,601.06 76.23,603.9899999999999 73.3,603.9899999999999" fill="#bcc5df"/><rect x="129.008" y="598.1279999999999" width="5.863999999999997" height="5.863999999999997" fill="#002085"/><polygon points="129.01,598.13 131.94,601.06 129.01,601.06" fill="#007bce"/><polygon points="131.94,598.13 134.87,598.13 134.87,601.06" fill="#003596"/><polygon points="129.01,601.06 131.94,601.06 131.94,603.9899999999999" fill="#0066bd"/><polygon points="131.94,601.06 134.87,601.06 131.94,603.9899999999999" fill="#eef0f7"/><rect x="158.328" y="598.1279999999999" width="5.863999999999997" height="5.863999999999997" fill="#002085"/><polygon points="158.33,598.13 161.26000000000002,598.13 161.26000000000002,601.06" fill="#c1c9e1"/><polygon points="161.26,598.13 164.19,598.13 161.26,601.06" fill="#465da7"/><polygon points="161.26000000000002,601.06 161.26000000000002,603.9899999999999 158.33,603.9899999999999" fill="#b6bfdc"/><polygon points="161.26,601.06 164.19,601.06 161.26,603.9899999999999" fill="#003d9c"/><rect x="187.64800000000002" y="598.1279999999999" width="5.863999999999997" height="5.863999999999997" fill="#002085"/><polygon points="187.65,598.13 190.58,598.13 190.58,601.06" fill="#004ca9"/><polygon points="193.51000000000002,598.13 193.51000000000002,601.06 190.58,601.06" fill="#364f9f"/><polygon points="187.65,601.06 190.58,603.9899999999999 187.65,603.9899999999999" fill="#0088d8"/><polygon points="190.58,601.06 193.51000000000002,603.9899999999999 190.58,603.9899999999999" fill="#008ede"/><rect x="216.96800000000002" y="598.1279999999999" width="5.863999999999997" height="5.863999999999997" fill="#002085"/><polygon points="216.97,598.13 219.9,598.13 216.97,601.06" fill="#b63d31"/><polygon points="219.9,598.13 222.83,601.06 219.9,601.06" fill="#007fd1"/><polygon points="216.97,601.06 219.9,601.06 219.9,603.9899999999999" fill="#0b2a8a"/><polygon points="219.9,601.06 222.83,601.06 222.83,603.9899999999999" fill="#0055af"/><rect x="451.528" y="598.1279999999999" width="5.863999999999997" height="5.863999999999997" fill="#002085"/><polygon points="451.53,598.13 454.46,598.13 454.46,601.06" fill="#30286f"/><polygon points="454.46,598.13 457.39,598.13 454.46,601.06" fill="#183590"/><polygon points="451.53,601.06 454.46,601.06 451.53,603.9899999999999" fill="#1d3993"/><polygon points="454.46,601.06 457.39,601.06 457.39,603.9899999999999" fill="#0070c6"/><rect x="510.168" y="598.1279999999999" width="5.863999999999997" height="5.863999999999997" fill="#002085"/><polygon points="510.17,598.13 513.1,601.06 510.17,601.06" fill="#af3c34"/><polygon points="516.03,598.13 516.03,601.06 513.1,601.06" fill="#002b8e"/><polygon points="510.17,601.06 513.1,601.06 513.1,603.9899999999999" fill="#003a9a"/><polygon points="513.1,601.06 516.03,601.06 513.1,603.9899999999999" fill="#005fb8"/><rect x="568.808" y="598.1279999999999" width="5.863999999999997" height="5.863999999999997" fill="#002085"/><polygon points="571.7399999999999,598.13 571.7399999999999,601.06 568.81,601.06" fill="#6074b3"/><polygon points="574.67,598.13 574.67,601.06 571.74,601.06" fill="#0046a4"/><polygon points="568.81,601.06 571.7399999999999,603.9899999999999 568.81,603.9899999999999" fill="#007fd1"/><polygon points="574.67,601.06 574.67,603.9899999999999 571.74,603.9899999999999" fill="#893646"/><rect x="598.1279999999999" y="598.1279999999999" width="5.863999999999997" height="5.863999999999997" fill="#002085"/><polygon points="598.13,598.13 601.06,598.13 598.13,601.06" fill="#1b3892"/><polygon points="601.06,598.13 603.9899999999999,598.13 601.06,601.06" fill="#112f8d"/><polygon points="598.13,601.06 601.06,601.06 598.13,603.9899999999999" fill="#d84221"/><polygon points="603.9899999999999,601.06 603.9899999999999,603.9899999999999 601.06,603.9899999999999" fill="#db4320"/><rect x="70.368" y="627.448" width="5.863999999999997" height="5.863999999999997" fill="#002085"/><polygon points="70.37,627.45 73.30000000000001,627.45 73.30000000000001,630.38" fill="#c53f2a"/><polygon points="73.3,627.45 76.23,630.38 73.3,630.38" fill="#9a383e"/><polygon points="73.30000000000001,630.38 73.30000000000001,633.31 70.37,633.31" fill="#532d5f"/><polygon points="73.3,630.38 76.23,633.31 73.3,633.31" fill="#003a9a"/><rect x="158.328" y="627.448" width="5.863999999999997" height="5.863999999999997" fill="#002085"/><polygon points="158.33,627.45 161.26000000000002,630.38 158.33,630.38" fill="#ce4126"/><polygon points="161.26,627.45 164.19,627.45 161.26,630.38" fill="#e0e4f0"/><polygon points="161.26000000000002,630.38 161.26000000000002,633.31 158.33,633.31" fill="#0086d7"/><polygon points="161.26,630.38 164.19,633.31 161.26,633.31" fill="#a0acd2"/><rect x="304.928" y="627.448" width="5.863999999999997" height="5.863999999999997" fill="#002085"/><polygon points="307.86,627.45 307.86,630.38 304.93,630.38" fill="#a6b2d5"/><polygon points="310.79,627.45 310.79,630.38 307.86,630.38" fill="#e5e8f3"/><polygon points="304.93,630.38 307.86,630.38 304.93,633.31" fill="#5268ac"/><polygon points="310.79,630.38 310.79,633.31 307.86,633.31" fill="#0072c7"/><rect x="334.248" y="627.448" width="5.863999999999997" height="5.863999999999997" fill="#002085"/><polygon points="337.18,627.45 337.18,630.38 334.25,630.38" fill="#344e9e"/><polygon points="337.18,627.45 340.11,627.45 340.11,630.38" fill="#c4cce3"/><polygon points="337.18,630.38 337.18,633.31 334.25,633.31" fill="#8a99c7"/><polygon points="337.18,630.38 340.11,630.38 337.18,633.31" fill="#007bce"/><rect x="363.56800000000004" y="627.448" width="5.863999999999997" height="5.863999999999997" fill="#002085"/><polygon points="366.5,627.45 366.5,630.38 363.57,630.38" fill="#00268a"/><polygon points="366.5,627.45 369.43,627.45 369.43,630.38" fill="#0089d9"/><polygon points="363.57,630.38 366.5,633.31 363.57,633.31" fill="#6b3154"/><polygon points="369.43,630.38 369.43,633.31 366.5,633.31" fill="#e5e8f3"/><rect x="392.88800000000003" y="627.448" width="5.863999999999997" height="5.863999999999997" fill="#002085"/><polygon points="395.82,627.45 395.82,630.38 392.89,630.38" fill="#0055b0"/><polygon points="395.82,627.45 398.75,627.45 395.82,630.38" fill="#e2441d"/><polygon points="395.82,630.38 395.82,633.31 392.89,633.31" fill="#00268a"/><polygon points="395.82,630.38 398.75,633.31 395.82,633.31" fill="#0043a1"/><rect x="422.208" y="627.448" width="5.863999999999997" height="5.863999999999997" fill="#002085"/><polygon points="422.21,627.45 425.14,627.45 425.14,630.38" fill="#38296b"/><polygon points="428.07,627.45 428.07,630.38 425.14,630.38" fill="#7687be"/><polygon points="422.21,630.38 425.14,633.31 422.21,633.31" fill="#18247a"/><polygon points="425.14,630.38 428.07,630.38 428.07,633.31" fill="#9eaad0"/><rect x="627.448" y="627.448" width="5.863999999999997" height="5.863999999999997" fill="#002085"/><polygon points="627.45,627.45 630.38,630.38 627.45,630.38" fill="#002287"/><polygon points="630.38,627.45 633.31,627.45 633.31,630.38" fill="#0086d7"/><polygon points="627.45,630.38 630.38,633.31 627.45,633.31" fill="#703251"/><polygon points="630.38,630.38 633.31,630.38 630.38,633.31" fill="#004ca9"/><rect x="99.68800000000002" y="656.7679999999999" width="5.863999999999997" height="5.863999999999997" fill="#002085"/><polygon points="99.69,656.77 102.62,656.77 99.69,659.6999999999999" fill="#909eca"/><polygon points="102.62,656.77 105.55000000000001,656.77 105.55000000000001,659.6999999999999" fill="#34286d"/><polygon points="99.69,659.7 102.62,659.7 99.69,662.63" fill="#b73d30"/><polygon points="105.55000000000001,659.7 105.55000000000001,662.63 102.62,662.63" fill="#7587bd"/><rect x="158.328" y="656.7679999999999" width="5.863999999999997" height="5.863999999999997" fill="#002085"/><polygon points="158.33,656.77 161.26000000000002,656.77 158.33,659.6999999999999" fill="#e0441d"/><polygon points="164.19,656.77 164.19,659.6999999999999 161.26,659.6999999999999" fill="#df431e"/><polygon points="158.33,659.7 161.26000000000002,659.7 161.26000000000002,662.63" fill="#16237b"/><polygon points="161.26,659.7 164.19,659.7 164.19,662.63" fill="#0061b9"/><rect x="216.96800000000002" y="656.7679999999999" width="5.863999999999997" height="5.863999999999997" fill="#002085"/><polygon points="216.97,656.77 219.9,659.6999999999999 216.97,659.6999999999999" fill="#0096e4"/><polygon points="222.83,656.77 222.83,659.6999999999999 219.9,659.6999999999999" fill="#843548"/><polygon points="216.97,659.7 219.9,662.63 216.97,662.63" fill="#8b9ac8"/><polygon points="219.9,659.7 222.83,659.7 222.83,662.63" fill="#00268a"/><rect x="304.928" y="656.7679999999999" width="5.863999999999997" height="5.863999999999997" fill="#002085"/><polygon points="304.93,656.77 307.86,659.6999999999999 304.93,659.6999999999999" fill="#d8ddec"/><polygon points="307.86,656.77 310.79,659.6999999999999 307.86,659.6999999999999" fill="#0a298a"/><polygon points="304.93,659.7 307.86,659.7 307.86,662.63" fill="#a83b37"/><polygon points="307.86,659.7 310.79,659.7 310.79,662.63" fill="#008fde"/><rect x="334.248" y="656.7679999999999" width="5.863999999999997" height="5.863999999999997" fill="#002085"/><polygon points="334.25,656.77 337.18,656.77 337.18,659.6999999999999" fill="#004aa7"/><polygon points="337.18,656.77 340.11,659.6999999999999 337.18,659.6999999999999" fill="#bcc5df"/><polygon points="337.18,659.7 337.18,662.63 334.25,662.63" fill="#0b298a"/><polygon points="340.11,659.7 340.11,662.63 337.18,662.63" fill="#8f9dc9"/><rect x="363.56800000000004" y="656.7679999999999" width="5.863999999999997" height="5.863999999999997" fill="#002085"/><polygon points="363.57,656.77 366.5,659.6999999999999 363.57,659.6999999999999" fill="#566bae"/><polygon points="366.5,656.77 369.43,656.77 366.5,659.6999999999999" fill="#002488"/><polygon points="363.57,659.7 366.5,662.63 363.57,662.63" fill="#0080d2"/><polygon points="369.43,659.7 369.43,662.63 366.5,662.63" fill="#ac3b35"/><rect x="422.208" y="656.7679999999999" width="5.863999999999997" height="5.863999999999997" fill="#002085"/><polygon points="422.21,656.77 425.14,659.6999999999999 422.21,659.6999999999999" fill="#0069c0"/><polygon points="425.14,656.77 428.07,656.77 428.07,659.6999999999999" fill="#0083d5"/><polygon points="422.21,659.7 425.14,662.63 422.21,662.63" fill="#002488"/><polygon points="425.14,659.7 428.07,662.63 425.14,662.63" fill="#00298c"/><rect x="480.848" y="656.7679999999999" width="5.863999999999997" height="5.863999999999997" fill="#002085"/><polygon points="480.85,656.77 483.78000000000003,659.6999999999999 480.85,659.6999999999999" fill="#2c479a"/><polygon points="483.78,656.77 486.71,656.77 486.71,659.6999999999999" fill="#422a67"/><polygon points="480.85,659.7 483.78000000000003,659.7 480.85,662.63" fill="#cf4125"/><polygon points="483.78,659.7 486.71,659.7 486.71,662.63" fill="#ced4e7"/><rect x="510.168" y="656.7679999999999" width="5.863999999999997" height="5.863999999999997" fill="#002085"/><polygon points="513.1,656.77 513.1,659.6999999999999 510.17,659.6999999999999" fill="#0068bf"/><polygon points="513.1,656.77 516.03,656.77 516.03,659.6999999999999" fill="#f4f6fa"/><polygon points="510.17,659.7 513.1,659.7 510.17,662.63" fill="#e3441c"/><polygon points="513.1,659.7 516.03,662.63 513.1,662.63" fill="#1e3a93"/><rect x="539.4879999999999" y="656.7679999999999" width="5.863999999999997" height="5.863999999999997" fill="#002085"/><polygon points="539.49,656.77 542.42,656.77 539.49,659.6999999999999" fill="#0058b2"/><polygon points="542.42,656.77 545.3499999999999,659.6999999999999 542.42,659.6999999999999" fill="#442b65"/><polygon points="539.49,659.7 542.42,662.63 539.49,662.63" fill="#7a334c"/><polygon points="542.42,659.7 545.3499999999999,659.7 545.3499999999999,662.63" fill="#2e489b"/><rect x="598.1279999999999" y="656.7679999999999" width="5.863999999999997" height="5.863999999999997" fill="#002085"/><polygon points="598.13,656.77 601.06,659.6999999999999 598.13,659.6999999999999" fill="#893646"/><polygon points="601.06,656.77 603.9899999999999,659.6999999999999 601.06,659.6999999999999" fill="#6d7fb9"/><polygon points="601.06,659.7 601.06,662.63 598.13,662.63" fill="#432b66"/><polygon points="603.9899999999999,659.7 603.9899999999999,662.63 601.06,662.63" fill="#3c54a2"/><rect x="656.7679999999999" y="656.7679999999999" width="5.863999999999997" height="5.863999999999997" fill="#002085"/><polygon points="656.77,656.77 659.6999999999999,659.6999999999999 656.77,659.6999999999999" fill="#abb5d7"/><polygon points="659.7,656.77 662.63,659.6999999999999 659.7,659.6999999999999" fill="#008cdc"/><polygon points="659.6999999999999,659.7 659.6999999999999,662.63 656.77,662.63" fill="#0052ad"/><polygon points="659.7,659.7 662.63,659.7 659.7,662.63" fill="#873547"/><rect x="686.088" y="656.7679999999999" width="5.863999999999997" height="5.863999999999997" fill="#002085"/><polygon points="686.09,656.77 689.02,656.77 689.02,659.6999999999999" fill="#11237d"/><polygon points="691.9499999999999,656.77 691.9499999999999,659.6999999999999 689.02,659.6999999999999" fill="#e2e6f1"/><polygon points="686.09,659.7 689.02,659.7 686.09,662.63" fill="#683055"/><polygon points="691.9499999999999,659.7 691.9499999999999,662.63 689.02,662.63" fill="#963840"/><rect x="11.728000000000002" y="686.088" width="5.863999999999997" height="5.863999999999997" fill="#002085"/><polygon points="14.66,686.09 14.66,689.02 11.73,689.02" fill="#8695c5"/><polygon points="14.66,686.09 17.59,686.09 14.66,689.02" fill="#d34123"/><polygon points="11.73,689.02 14.66,689.02 11.73,691.9499999999999" fill="#4a2c63"/><polygon points="14.66,689.02 17.59,689.02 14.66,691.9499999999999" fill="#006bc1"/><rect x="158.328" y="686.088" width="5.863999999999997" height="5.863999999999997" fill="#002085"/><polygon points="158.33,686.09 161.26000000000002,686.09 161.26000000000002,689.02" fill="#aa3b36"/><polygon points="161.26,686.09 164.19,686.09 164.19,689.02" fill="#0068bf"/><polygon points="158.33,689.02 161.26000000000002,689.02 158.33,691.9499999999999" fill="#5167ac"/><polygon points="161.26,689.02 164.19,691.9499999999999 161.26,691.9499999999999" fill="#c53f2a"/><rect x="480.848" y="686.088" width="5.863999999999997" height="5.863999999999997" fill="#002085"/><polygon points="483.78000000000003,686.09 483.78000000000003,689.02 480.85,689.02" fill="#4d63aa"/><polygon points="483.78,686.09 486.71,689.02 483.78,689.02" fill="#0075c9"/><polygon points="483.78000000000003,689.02 483.78000000000003,691.9499999999999 480.85,691.9499999999999" fill="#a7b2d5"/><polygon points="483.78,689.02 486.71,689.02 483.78,691.9499999999999" fill="#254097"/><rect x="539.4879999999999" y="686.088" width="5.863999999999997" height="5.863999999999997" fill="#002085"/><polygon points="539.49,686.09 542.42,689.02 539.49,689.02" fill="#bc3e2e"/><polygon points="545.3499999999999,686.09 545.3499999999999,689.02 542.42,689.02" fill="#0097e5"/><polygon points="539.49,689.02 542.42,689.02 539.49,691.9499999999999" fill="#4c62a9"/><polygon points="542.42,689.02 545.3499999999999,691.9499999999999 542.42,691.9499999999999" fill="#893646"/><rect x="656.7679999999999" y="686.088" width="5.863999999999997" height="5.863999999999997" fill="#002085"/><polygon points="659.6999999999999,686.09 659.6999999999999,689.02 656.77,689.02" fill="#007bce"/><polygon points="659.7,686.09 662.63,686.09 662.63,689.02" fill="#0047a4"/><polygon points="656.77,689.02 659.6999999999999,691.9499999999999 656.77,691.9499999999999" fill="#009be8"/><polygon points="659.7,689.02 662.63,691.9499999999999 659.7,691.9499999999999" fill="#445ba5"/><rect x="715.408" y="686.088" width="5.863999999999997" height="5.863999999999997" fill="#002085"/><polygon points="718.3399999999999,686.09 718.3399999999999,689.02 715.41,689.02" fill="#98a5ce"/><polygon points="721.27,686.09 721.27,689.02 718.34,689.02" fill="#adb7d8"/><polygon points="718.3399999999999,689.02 718.3399999999999,691.9499999999999 715.41,691.9499999999999" fill="#d8ddec"/><polygon points="721.27,689.02 721.27,691.9499999999999 718.34,691.9499999999999" fill="#eff1f7"/><rect x="246.288" y="715.408" width="5.863999999999997" height="5.863999999999997" fill="#002085"/><polygon points="246.29,715.41 249.22,718.3399999999999 246.29,718.3399999999999" fill="#274298"/><polygon points="249.22,715.41 252.15,718.3399999999999 249.22,718.3399999999999" fill="#004da9"/><polygon points="246.29,718.34 249.22,718.34 246.29,721.27" fill="#0063bb"/><polygon points="249.22,718.34 252.15,721.27 249.22,721.27" fill="#183590"/><rect x="275.608" y="715.408" width="5.863999999999997" height="5.863999999999997" fill="#002085"/><polygon points="275.61,715.41 278.54,715.41 278.54,718.3399999999999" fill="#dce0ee"/><polygon points="278.54,715.41 281.47,718.3399999999999 278.54,718.3399999999999" fill="#1e3a93"/><polygon points="275.61,718.34 278.54,721.27 275.61,721.27" fill="#002589"/><polygon points="278.54,718.34 281.47,718.34 278.54,721.27" fill="#1f3b94"/><rect x="392.88800000000003" y="715.408" width="5.863999999999997" height="5.863999999999997" fill="#002085"/><polygon points="392.89,715.41 395.82,715.41 392.89,718.3399999999999" fill="#002f91"/><polygon points="395.82,715.41 398.75,715.41 395.82,718.3399999999999" fill="#003193"/><polygon points="392.89,718.34 395.82,718.34 395.82,721.27" fill="#8a3645"/><polygon points="395.82,718.34 398.75,718.34 395.82,721.27" fill="#c1c9e1"/><rect x="510.168" y="715.408" width="5.863999999999997" height="5.863999999999997" fill="#002085"/><polygon points="513.1,715.41 513.1,718.3399999999999 510.17,718.3399999999999" fill="#8d9bc9"/><polygon points="513.1,715.41 516.03,715.41 516.03,718.3399999999999" fill="#0086d8"/><polygon points="510.17,718.34 513.1,718.34 513.1,721.27" fill="#c6cde4"/><polygon points="516.03,718.34 516.03,721.27 513.1,721.27" fill="#c13f2c"/><rect x="568.808" y="715.408" width="5.863999999999997" height="5.863999999999997" fill="#002085"/><polygon points="568.81,715.41 571.7399999999999,718.3399999999999 568.81,718.3399999999999" fill="#0064bc"/><polygon points="571.74,715.41 574.67,715.41 574.67,718.3399999999999" fill="#eff1f7"/><polygon points="571.7399999999999,718.34 571.7399999999999,721.27 568.81,721.27" fill="#ab3b36"/><polygon points="571.74,718.34 574.67,718.34 574.67,721.27" fill="#0066bd"/><rect x="598.1279999999999" y="715.408" width="5.863999999999997" height="5.863999999999997" fill="#002085"/><polygon points="598.13,715.41 601.06,715.41 598.13,718.3399999999999" fill="#006ac1"/><polygon points="603.9899999999999,715.41 603.9899999999999,718.3399999999999 601.06,718.3399999999999" fill="#16237b"/><polygon points="598.13,718.34 601.06,718.34 598.13,721.27" fill="#003f9e"/><polygon points="601.06,718.34 603.9899999999999,718.34 603.9899999999999,721.27" fill="#556aae"/><rect x="627.448" y="715.408" width="5.863999999999997" height="5.863999999999997" fill="#002085"/><polygon points="627.45,715.41 630.38,715.41 630.38,718.3399999999999" fill="#0074c9"/><polygon points="630.38,715.41 633.31,715.41 633.31,718.3399999999999" fill="#7e344b"/><polygon points="627.45,718.34 630.38,721.27 627.45,721.27" fill="#a0393b"/><polygon points="630.38,718.34 633.31,721.27 630.38,721.27" fill="#007ace"/></g></svg>