<?xml version="1.0" standalone="no"?><svg xmlns:xlink="http://www.w3.org/1999/xlink" xmlns="http://www.w3.org/2000/svg" viewBox="0 0 1000 1000.0000000000001" preserveAspectRatio="xMaxYMax slice"><g transform="scale(1.2658227848101267)"><rect x="0" y="0" width="790" height="790" fill="transparent"/><rect x="0" y="0" width="197.5" height="197.5" fill="transparent"/><polygon points="98.75,0 98.75,98.75 0,98.75" fill="#daf3ff"/><polygon points="98.75,0 197.5,98.75 98.75,98.75" fill="#e6f7ff"/><polygon points="0,98.75 98.75,98.75 0,197.5" fill="#d1f0ff"/><polygon points="98.75,98.75 197.5,98.75 98.75,197.5" fill="#eb795d"/><polygon points="197.5,0 395,0 395,197.5" fill="#e6f7ff"/><rect x="592.5" y="0" width="197.5" height="197.5" fill="transparent"/><polygon points="592.5,0 691.25,98.75 592.5,98.75" fill="#ec8064"/><polygon points="691.25,0 790,98.75 691.25,98.75" fill="#f7fcff"/><polygon points="592.5,98.75 691.25,98.75 592.5,197.5" fill="#f2a693"/><polygon points="691.25,98.75 790,98.75 790,197.5" fill="#eefaff"/><polygon points="0,197.5 197.5,197.5 197.5,395" fill="#dcf3ff"/><polygon points="395,197.5 395,395 197.5,395" fill="transparent"/><rect x="592.5" y="197.5" width="197.5" height="197.5" fill="transparent"/><polygon points="691.25,197.5 691.25,296.25 592.5,296.25" fill="#f8cfc5"/><polygon points="691.25,197.5 790,197.5 790,296.25" fill="#ddf4ff"/><polygon points="592.5,296.25 691.25,395 592.5,395" fill="#f9d7ce"/><polygon points="790,296.25 790,395 691.25,395" fill="#f3b1a0"/><polygon points="395,395 395,592.5 197.5,592.5" fill="#dbf3ff"/><rect x="395" y="395" width="197.5" height="197.5" fill="transparent"/><polygon points="395,395 493.75,395 395,493.75" fill="#f8cec4"/><polygon points="493.75,395 592.5,395 592.5,493.75" fill="#dff5ff"/><polygon points="395,493.75 493.75,592.5 395,592.5" fill="#fef8f6"/><polygon points="493.75,493.75 592.5,493.75 493.75,592.5" fill="#fae0da"/><polygon points="0,592.5 197.5,592.5 197.5,790" fill="transparent"/><rect x="197.5" y="592.5" width="197.5" height="197.5" fill="transparent"/><polygon points="197.5,592.5 296.25,592.5 197.5,691.25" fill="#def4ff"/><polygon points="296.25,592.5 395,691.25 296.25,691.25" fill="#eb795d"/><polygon points="197.5,691.25 296.25,790 197.5,790" fill="transparent"/><polygon points="296.25,691.25 395,790 296.25,790" fill="#f1faff"/><polygon points="395,592.5 592.5,592.5 395,790" fill="#f9d7ce"/><polygon points="592.5,592.5 790,592.5 592.5,790" fill="#f3fbff"/></g></svg>