<?xml version="1.0" standalone="no"?><svg xmlns:xlink="http://www.w3.org/1999/xlink" xmlns="http://www.w3.org/2000/svg" viewBox="0 0 1000 200.00000000000003" preserveAspectRatio="xMaxYMax slice"><g transform="scale(0.6622516556291391)"><rect x="0" y="0" width="1510" height="302" fill="transparent"/><rect x="75.5" y="75.5" width="75.5" height="75.5" fill="transparent"/><path d="M 75.5 75.5 A 37.75 37.75 0 0 1  113.25 113.25 L 75.5 75.5 A 37.75 37.75 0 0 0 113.25 113.25" fill="#002085"/><g transform="translate(113.25,75.5) scale(1.8875) rotate(0)"><path d="M10 0H20L0 20V10L10 0Z" fill="#2828c1"/><path d="M20 10V20H10L20 10Z" fill="#2828c1"/></g><path d="M 113.25 113.25 A 37.75 37.75 0 0 1  151 151 L 113.25 113.25 A 37.75 37.75 0 0 0 151 151" fill="#e3441c"/><rect x="151" y="75.5" width="75.5" height="75.5" fill="transparent"/><polygon points="151,75.5 188.75,75.5 188.75,113.25" fill="#e3441c"/><path d="M 188.75 151 A 37.75 37.75 0 0 0 226.5 113.25 L 188.75 113.25" fill="#2828c1"/><rect x="226.5" y="75.5" width="75.5" height="75.5" fill="transparent"/><polygon points="264.25,113.25 302,113.25 302,151" fill="#002085"/><rect x="377.5" y="75.5" width="75.5" height="75.5" fill="transparent"/><circle cx="434.125" cy="132.125" r="18.875" fill="#002085"/><path d="M 453 75.5 A 75.5 75.5 0 0 1  528.5 151 L 453 75.5 A 75.5 75.5 0 0 0 528.5 151" fill="#002085"/><rect x="1057" y="75.5" width="75.5" height="75.5" fill="transparent"/><rect x="1208" y="75.5" width="75.5" height="75.5" fill="transparent"/><path d="M 0 151 A 75.5 75.5 0 0 1  75.5 226.5 L 0 151 A 75.5 75.5 0 0 0 75.5 226.5" fill="#e3441c"/><circle cx="113.25" cy="188.75" r="37.75" fill="#009ce9"/><rect x="226.5" y="151" width="75.5" height="75.5" fill="transparent"/><path d="M 264.25 188.75 A 37.75 37.75 0 0 1  302 151 L 302 188.75" fill="#002085"/><circle cx="245.375" cy="207.625" r="18.875" fill="#2828c1"/><g transform="translate(264.25,188.75) scale(1.8875) rotate(0)"><path d="M10 0H20L0 20V10L10 0Z" fill="#2828c1"/><path d="M20 10V20H10L20 10Z" fill="#2828c1"/></g><rect x="302" y="151" width="75.5" height="75.5" fill="transparent"/><g transform="translate(339.75,151) scale(1.8875) rotate(0)"><path d="M10 0H20L0 20V10L10 0Z" fill="#e3441c"/><path d="M20 10V20H10L20 10Z" fill="#e3441c"/></g><circle cx="320.875" cy="207.625" r="18.875" fill="#e3441c"/><circle cx="358.625" cy="207.625" r="18.875" fill="#002085"/><rect x="377.5" y="151" width="75.5" height="75.5" fill="transparent"/><path d="M 377.5 151 A 37.75 37.75 0 0 1  415.25 188.75 L 377.5 151 A 37.75 37.75 0 0 0 415.25 188.75" fill="#2828c1"/><g transform="translate(377.5,188.75) scale(1.8875) rotate(0)"><path d="M10 0H20L0 20V10L10 0Z" fill="#2828c1"/><path d="M20 10V20H10L20 10Z" fill="#2828c1"/></g><path d="M 415.25 226.5 A 37.75 37.75 0 0 1  453 188.75 L 415.25 226.5 A 37.75 37.75 0 0 0 453 188.75" fill="#e3441c"/><rect x="528.5" y="151" width="75.5" height="75.5" fill="transparent"/><g transform="translate(528.5,151) scale(1.8875) rotate(0)"><path d="M10 0H20L0 20V10L10 0Z" fill="#009ce9"/><path d="M20 10V20H10L20 10Z" fill="#009ce9"/></g><path d="M 566.25 151 A 37.75 37.75 0 0 0 604 188.75 L 604 151" fill="#009ce9"/><path d="M 566.25 226.5 A 37.75 37.75 0 0 0 604 188.75 L 566.25 188.75" fill="#e3441c"/><rect x="679.5" y="151" width="75.5" height="75.5" fill="transparent"/><polygon points="717.25,151 717.25,188.75 679.5,188.75" fill="#002085"/><g transform="translate(717.25,151) scale(1.8875) rotate(0)"><path d="M10 0H20L0 20V10L10 0Z" fill="#002085"/><path d="M20 10V20H10L20 10Z" fill="#002085"/></g><polygon points="679.5,188.75 717.25,226.5 679.5,226.5" fill="#e3441c"/><rect x="906" y="151" width="75.5" height="75.5" fill="transparent"/><circle cx="962.625" cy="169.875" r="18.875" fill="#2828c1"/><g transform="translate(906,188.75) scale(1.8875) rotate(0)"><path d="M10 0H20L0 20V10L10 0Z" fill="#2828c1"/><path d="M20 10V20H10L20 10Z" fill="#2828c1"/></g><polygon points="981.5,188.75 981.5,226.5 943.75,226.5" fill="#2828c1"/><g transform="translate(981.5,151) scale(3.775) rotate(0)"><path d="M10 0H20L0 20V10L10 0Z" fill="#2828c1"/><path d="M20 10V20H10L20 10Z" fill="#2828c1"/></g><g transform="translate(1359,151) scale(3.775) rotate(0)"><path d="M10 0H20L0 20V10L10 0Z" fill="#009ce9"/><path d="M20 10V20H10L20 10Z" fill="#002085"/></g><rect x="1434.5" y="151" width="75.5" height="75.5" fill="transparent"/><polygon points="1434.5,151 1472.25,151 1434.5,188.75" fill="#009ce9"/><polygon points="1434.5,188.75 1472.25,188.75 1472.25,226.5" fill="#002085"/><rect x="0" y="226.5" width="75.5" height="75.5" fill="transparent"/><path d="M 0 226.5 A 37.75 37.75 0 0 1  37.75 264.25 L 0 226.5 A 37.75 37.75 0 0 0 37.75 264.25" fill="#002085"/><path d="M 37.75 264.25 A 37.75 37.75 0 0 1  75.5 226.5 L 75.5 264.25" fill="#009ce9"/><g transform="translate(0,264.25) scale(1.8875) rotate(0)"><path d="M10 0H20L0 20V10L10 0Z" fill="#009ce9"/><path d="M20 10V20H10L20 10Z" fill="#009ce9"/></g><path d="M 37.75 264.25 A 37.75 37.75 0 0 1  75.5 302 L 37.75 264.25 A 37.75 37.75 0 0 0 75.5 302" fill="#2828c1"/><rect x="75.5" y="226.5" width="75.5" height="75.5" fill="transparent"/><polygon points="75.5,226.5 113.25,226.5 113.25,264.25" fill="#2828c1"/><path d="M 113.25 226.5 A 37.75 37.75 0 0 0 151 264.25 L 151 226.5" fill="#002085"/><polygon points="113.25,264.25 151,264.25 113.25,302" fill="#2828c1"/><rect x="151" y="226.5" width="75.5" height="75.5" fill="transparent"/><polygon points="151,226.5 188.75,226.5 151,264.25" fill="#2828c1"/><path d="M 188.75 264.25 A 37.75 37.75 0 0 0 226.5 226.5 L 188.75 226.5" fill="#009ce9"/><circle cx="169.875" cy="283.125" r="18.875" fill="#2828c1"/><path d="M 188.75 302 A 37.75 37.75 0 0 1  226.5 264.25 L 226.5 302" fill="#009ce9"/><g transform="translate(226.5,226.5) scale(3.775) rotate(0)"><path d="M10 0H20L0 20V10L10 0Z" fill="#2828c1"/><path d="M20 10V20H10L20 10Z" fill="#2828c1"/></g><rect x="302" y="226.5" width="75.5" height="75.5" fill="transparent"/><g transform="translate(302,226.5) scale(1.8875) rotate(0)"><path d="M10 0H20L0 20V10L10 0Z" fill="#009ce9"/><path d="M20 10V20H10L20 10Z" fill="#009ce9"/></g><path d="M 339.75 226.5 A 37.75 37.75 0 0 1  377.5 264.25 L 339.75 226.5 A 37.75 37.75 0 0 0 377.5 264.25" fill="#009ce9"/><polygon points="302,264.25 339.75,264.25 302,302" fill="#2828c1"/><circle cx="358.625" cy="283.125" r="18.875" fill="#e3441c"/><path d="M 453 226.5 A 75.5 75.5 0 0 1 528.5 302 L 453 302" fill="#002085"/><rect x="528.5" y="226.5" width="75.5" height="75.5" fill="transparent"/><path d="M 528.5 226.5 A 37.75 37.75 0 0 1  566.25 264.25 L 528.5 226.5 A 37.75 37.75 0 0 0 566.25 264.25" fill="#002085"/><path d="M 566.25 264.25 A 37.75 37.75 0 0 1  604 226.5 L 604 264.25" fill="#2828c1"/><polygon points="528.5,264.25 566.25,264.25 528.5,302" fill="#e3441c"/><polygon points="566.25,264.25 604,302 566.25,302" fill="#009ce9"/><path d="M 604 302 A 75.5 75.5 0 0 1  679.5 226.5 L 604 302 A 75.5 75.5 0 0 0 679.5 226.5" fill="#009ce9"/><rect x="679.5" y="226.5" width="75.5" height="75.5" fill="transparent"/><polygon points="679.5,226.5 717.25,264.25 679.5,264.25" fill="#002085"/><g transform="translate(717.25,226.5) scale(1.8875) rotate(0)"><path d="M10 0H20L0 20V10L10 0Z" fill="#e3441c"/><path d="M20 10V20H10L20 10Z" fill="#e3441c"/></g><path d="M 679.5 264.25 A 37.75 37.75 0 0 1  717.25 302 L 679.5 264.25 A 37.75 37.75 0 0 0 717.25 302" fill="#e3441c"/><circle cx="736.125" cy="283.125" r="18.875" fill="#2828c1"/><rect x="755" y="226.5" width="75.5" height="75.5" fill="transparent"/><circle cx="773.875" cy="283.125" r="18.875" fill="#002085"/><circle cx="811.625" cy="283.125" r="18.875" fill="#009ce9"/><g transform="translate(981.5,226.5) scale(3.775) rotate(0)"><path d="M10 0H20L0 20V10L10 0Z" fill="#2828c1"/><path d="M20 10V20H10L20 10Z" fill="#2828c1"/></g><rect x="1057" y="226.5" width="75.5" height="75.5" fill="transparent"/><path d="M 1057 226.5 A 37.75 37.75 0 0 1  1094.75 264.25 L 1057 226.5 A 37.75 37.75 0 0 0 1094.75 264.25" fill="#009ce9"/><g transform="translate(1094.75,226.5) scale(1.8875) rotate(0)"><path d="M10 0H20L0 20V10L10 0Z" fill="#e3441c"/><path d="M20 10V20H10L20 10Z" fill="#e3441c"/></g><g transform="translate(1057,264.25) scale(1.8875) rotate(0)"><path d="M10 0H20L0 20V10L10 0Z" fill="#2828c1"/><path d="M20 10V20H10L20 10Z" fill="#2828c1"/></g><polygon points="1094.75,264.25 1132.5,302 1094.75,302" fill="#009ce9"/><path d="M 1132.5 226.5 A 75.5 75.5 0 0 1  1208 302 L 1132.5 226.5 A 75.5 75.5 0 0 0 1208 302" fill="#002085"/><path d="M 1434.5 302 A 75.5 75.5 0 0 1  1510 226.5 L 1434.5 302 A 75.5 75.5 0 0 0 1510 226.5" fill="#e3441c"/></g></svg>