<svg id="aaafdec0-95c8-49a3-a8f8-64216c6da511" data-name="Layer 1" xmlns="http://www.w3.org/2000/svg" width="1013.44925" height="610.28138" viewBox="0 0 1013.44925 610.28138"><title>message sent</title><path d="M222,521s-.68-2-1.78-5.72" transform="translate(-198.34 -72.43)" fill="none" stroke="#fe8b8b" stroke-miterlimit="10" stroke-width="9"/><path d="M217,503.68C192.69,410.08,116.9-21.3,876.66,248" transform="translate(-198.34 -72.43)" fill="none" stroke="#fe8b8b" stroke-miterlimit="10" stroke-width="9" stroke-dasharray="12.04 12.04"/><path d="M882.35,250l5.65,2" transform="translate(-198.34 -72.43)" fill="none" stroke="#fe8b8b" stroke-miterlimit="10" stroke-width="9"/><path d="M766.64644,753.85087H381.81268a47.58312,47.58312,0,0,1-47.58312-47.58312V529.956a18.85083,18.85083,0,0,1,5.88232-13.68106L544.0357,322.97213a43.88936,43.88936,0,0,1,60.38773,0L798.854,507.27609a49.27354,49.27354,0,0,1,15.37558,35.76045V706.26775A47.58312,47.58312,0,0,1,766.64644,753.85087Z" transform="translate(-93.27537 -144.85931)" fill="#4454ae"/><path d="M240.95419,387.99156h476a0,0,0,0,1,0,0V580.25928a28.73228,28.73228,0,0,1-28.73228,28.73228H269.68647a28.73228,28.73228,0,0,1-28.73228-28.73228V387.99156a0,0,0,0,1,0,0Z" opacity="0.1"/><path d="M333.72956,521.35087" transform="translate(-93.27537 -144.85931)" fill="none" stroke="#3f3d56" stroke-miterlimit="10"/><rect x="303.45419" y="236.49156" width="354" height="354" rx="26.1811" fill="#fe8b8b"/><polygon points="657.454 395.942 657.454 590.492 303.454 590.492 303.454 395.942 480.454 481.492 657.454 395.942" opacity="0.1"/><path d="M573.72956,637.35087l-226.7938-109.617a9.20185,9.20185,0,0,0-13.2062,8.28487V724.61858a28.73228,28.73228,0,0,0,28.73228,28.73229H784.99728a28.73228,28.73228,0,0,0,28.73228-28.73229v-185.369a11.22869,11.22869,0,0,0-16.11507-10.10975Z" transform="translate(-93.27537 -144.85931)" fill="#4454ae"/><rect x="333.95419" y="268.99156" width="99" height="14" fill="#f2f2f2"/><rect x="325.95419" y="319.99156" width="294" height="8" fill="#f2f2f2"/><rect x="325.95419" y="346.99156" width="294" height="8" fill="#f2f2f2"/><rect x="325.95419" y="373.99156" width="294" height="8" fill="#f2f2f2"/><path d="M93.27537,630.2124c0,58.96027,36.98858,106.67017,82.69935,106.67017" transform="translate(-93.27537 -144.85931)" fill="#fe8b8b"/><path d="M175.97472,736.88257c0-59.62274,41.2771-107.86871,92.28767-107.86871" transform="translate(-93.27537 -144.85931)" fill="#4454ae"/><path d="M123.2389,635.55725c0,56.006,23.58692,101.32532,52.73582,101.32532" transform="translate(-93.27537 -144.85931)" fill="#4454ae"/><path d="M175.97472,736.88257c0-76.18461,47.7099-137.83224,106.67016-137.83224" transform="translate(-93.27537 -144.85931)" fill="#fe8b8b"/><path d="M158.57691,737.63461s11.72813-.36122,15.26269-2.87813,18.04081-5.52225,18.91765-1.48567,17.6252,20.07611,4.3842,20.18291-30.76619-2.06249-34.29395-4.21139S158.57691,737.63461,158.57691,737.63461Z" transform="translate(-93.27537 -144.85931)" fill="#a8a8a8"/><polygon points="795.23 214.52 798.82 215.08 798.26 214.55 798.56 214.55 798.09 214.39 733 152.66 717.2 177.59 704.06 200.33 710.15 201.28 707.45 213.6 795.23 214.52" fill="url(#bf099e8a-7ee0-495a-b39d-11459c4d4e21)"/><polygon points="719.93 178.89 707.93 199.7 795.93 214.03 739.25 174.56 719.93 178.89" fill="#FAFAFA"/><polygon points="719.93 178.89 707.93 199.7 795.93 214.03 739.25 174.56 719.93 178.89" opacity="0.2"/><polygon points="734.38 156.09 795.93 214.03 719.93 178.89 734.38 156.09" fill="#FAFAFA"/><polygon points="711.17 211.93 795.69 213.54 716.79 185.52 711.17 211.93" fill="#FAFAFA"/></svg>